<svg width="10" height="10" viewBox="0 0 10 10" fill="none" xmlns="http://www.w3.org/2000/svg">
<path d="M5.39012 5.0004L8.41662 1.9699C8.44226 1.94426 8.4626 1.91382 8.47647 1.88032C8.49035 1.84682 8.49749 1.81091 8.49749 1.77465C8.49749 1.73839 8.49035 1.70249 8.47647 1.66899C8.4626 1.63548 8.44226 1.60504 8.41662 1.5794C8.39098 1.55376 8.36054 1.53342 8.32704 1.51955C8.29354 1.50567 8.25763 1.49853 8.22137 1.49853C8.18511 1.49853 8.1492 1.50567 8.1157 1.51955C8.0822 1.53342 8.05176 1.55376 8.02612 1.5794L4.99762 4.6074L1.96912 1.5794C1.94348 1.55373 1.91303 1.53336 1.87952 1.51945C1.846 1.50554 1.81008 1.49838 1.77379 1.49835C1.73751 1.49833 1.70157 1.50545 1.66804 1.51932C1.63451 1.53318 1.60404 1.55351 1.57837 1.57915C1.55269 1.60479 1.53232 1.63524 1.51841 1.66875C1.50451 1.70227 1.49734 1.73819 1.49731 1.77448C1.49729 1.81076 1.50441 1.84669 1.51828 1.88023C1.53214 1.91376 1.55248 1.94423 1.57812 1.9699L4.60762 4.9994L1.57962 8.0299C1.53103 8.08239 1.50466 8.15165 1.50606 8.22316C1.50746 8.29467 1.53651 8.36285 1.58712 8.41339C1.63772 8.46393 1.70595 8.4929 1.77745 8.49421C1.84896 8.49551 1.9182 8.46906 1.97062 8.4204L4.99912 5.3919L8.02812 8.4199C8.05342 8.44716 8.08396 8.46904 8.11791 8.48422C8.15186 8.4994 8.18853 8.50757 8.22571 8.50825C8.2629 8.50893 8.29984 8.5021 8.33432 8.48817C8.36881 8.47424 8.40013 8.4535 8.42641 8.42719C8.45269 8.40087 8.47339 8.36952 8.48728 8.33502C8.50116 8.30052 8.50794 8.26357 8.50722 8.22639C8.50649 8.1892 8.49827 8.15255 8.48304 8.11862C8.46782 8.08468 8.44591 8.05417 8.41862 8.0289L5.39012 5.0004Z" fill="current" stroke="current"/>
</svg>
