<svg width="23" height="21" viewBox="0 0 23 21" fill="none" xmlns="http://www.w3.org/2000/svg">
<path d="M11.5 0.322998C5.4247 0.322998 0.5 4.14742 0.5 8.8666C0.5 11.8018 2.4052 14.3881 5.3048 15.9255L4.0849 20.407C4.06249 20.4955 4.06749 20.5887 4.09924 20.6743C4.131 20.7598 4.188 20.8337 4.26269 20.8861C4.33739 20.9385 4.42624 20.967 4.51747 20.9677C4.6087 20.9684 4.69799 20.9414 4.7735 20.8901L10.1228 17.3409C10.5738 17.3849 11.0336 17.4102 11.5 17.4102C17.5753 17.4102 22.5 13.5847 22.5 8.8666C22.5 4.14852 17.5753 0.322998 11.5 0.322998Z" fill="black" fill-opacity="0.9"/>
</svg>
