<svg width="638" height="379" viewBox="0 0 638 379" fill="none" xmlns="http://www.w3.org/2000/svg">
<g filter="url(#filter0_i_1500_12264)">
<path d="M619.667 378.03H17.5968C12.9298 378.03 8.45403 376.176 5.15399 372.876C1.85394 369.576 0 365.1 0 360.433L0 17.5968C0 12.9298 1.85394 8.45403 5.15399 5.15399C8.45403 1.85394 12.9298 0 17.5968 0L619.667 0C624.334 0 628.81 1.85394 632.11 5.15399C635.41 8.45403 637.264 12.9298 637.264 17.5968V360.433C637.264 365.1 635.41 369.576 632.11 372.876C628.81 376.176 624.334 378.03 619.667 378.03Z" fill="#F1F1F1"/>
<rect x="138" y="125" width="361" height="133.468" rx="7.62676" fill="white"/>
<circle cx="162.151" cy="149.151" r="8.89789" fill="#F1F1F1"/>
<rect x="174.863" y="142.796" width="50.8451" height="6.35563" fill="#F1F1F1"/>
<rect x="174.863" y="151.694" width="25.4225" height="5.08451" fill="#F1F1F1"/>
<rect x="153.253" y="172.032" width="331.764" height="6.35563" fill="#F1F1F1"/>
<rect x="153.253" y="182.201" width="331.764" height="6.35563" fill="#F1F1F1"/>
<rect x="153.253" y="192.37" width="331.764" height="6.35563" fill="#F1F1F1"/>
<rect x="153.253" y="202.539" width="156.349" height="6.35563" fill="#F1F1F1"/>
<rect x="153.253" y="220.335" width="13.9824" height="5.08451" fill="#F1F1F1"/>
<rect x="169.778" y="220.335" width="13.9824" height="5.08451" fill="#F1F1F1"/>
<rect x="186.303" y="220.335" width="13.9824" height="5.08451" fill="#F1F1F1"/>
<rect x="224.437" y="241.944" width="17.7958" height="5.08451" fill="#F1F1F1"/>
<rect x="404.937" y="241.944" width="17.7958" height="5.08451" fill="#F1F1F1"/>
<rect x="451.968" y="220.335" width="33.0493" height="5.08451" fill="#F1F1F1"/>
<line x1="153.253" y1="232.792" x2="485.018" y2="232.792" stroke="#D2D2D2" stroke-width="0.508451"/>
<line x1="318.754" y1="236.859" x2="318.754" y2="252.113" stroke="#D2D2D2" stroke-width="0.508451"/>
<path d="M221.259 241.944H216.174C215.825 241.944 215.542 242.172 215.542 242.452L215.539 247.028L216.81 246.011H221.259C221.608 246.011 221.894 245.782 221.894 245.503V242.452C221.894 242.172 221.608 241.944 221.259 241.944Z" fill="#D2D2D2"/>
<path d="M399.725 241.944C399.282 241.944 398.858 242.168 398.581 242.523C398.304 242.168 397.879 241.944 397.437 241.944C396.654 241.944 396.039 242.614 396.039 243.468C396.039 244.515 396.903 245.368 398.212 246.665L398.581 247.028L398.949 246.662C400.259 245.368 401.123 244.515 401.123 243.468C401.123 242.614 400.508 241.944 399.725 241.944ZM398.606 246.252L398.581 246.28L398.555 246.252C397.345 245.058 396.547 244.268 396.547 243.468C396.547 242.913 396.928 242.498 397.437 242.498C397.828 242.498 398.21 242.772 398.344 243.152H398.82C398.952 242.772 399.333 242.498 399.725 242.498C400.233 242.498 400.615 242.913 400.615 243.468C400.615 244.268 399.816 245.058 398.606 246.252Z" fill="#D2D2D2"/>
<path d="M448.515 220.335C447.613 220.335 446.884 221.064 446.884 221.966C446.884 223.189 448.515 224.995 448.515 224.995C448.515 224.995 450.146 223.189 450.146 221.966C450.146 221.064 449.417 220.335 448.515 220.335ZM448.515 222.548C448.193 222.548 447.932 222.287 447.932 221.966C447.932 221.644 448.193 221.383 448.515 221.383C448.837 221.383 449.098 221.644 449.098 221.966C449.098 222.287 448.837 222.548 448.515 222.548Z" fill="#D2D2D2"/>
<g clip-path="url(#clip0_1500_12264)">
<rect x="138" y="273" width="361" height="133.468" rx="7.62676" fill="white"/>
<circle cx="162.151" cy="297.152" r="8.89789" fill="#F1F1F1"/>
<rect x="174.863" y="290.796" width="50.8451" height="6.35563" fill="#F1F1F1"/>
<rect x="174.863" y="299.693" width="25.4225" height="5.08451" fill="#F1F1F1"/>
<rect x="153.253" y="320.031" width="331.764" height="6.35563" fill="#F1F1F1"/>
<rect x="153.253" y="330.201" width="331.764" height="6.35563" fill="#F1F1F1"/>
<rect x="153.253" y="340.37" width="331.764" height="6.35563" fill="#F1F1F1"/>
<rect x="153.253" y="350.539" width="156.349" height="6.35563" fill="#F1F1F1"/>
<rect x="153.253" y="368.335" width="13.9824" height="5.08451" fill="#F1F1F1"/>
<rect x="169.778" y="368.335" width="13.9824" height="5.08451" fill="#F1F1F1"/>
<rect x="186.303" y="368.335" width="13.9824" height="5.08451" fill="#F1F1F1"/>
<rect x="451.968" y="368.335" width="33.0493" height="5.08451" fill="#F1F1F1"/>
<path d="M448.515 368.335C447.613 368.335 446.884 369.064 446.884 369.966C446.884 371.19 448.515 372.996 448.515 372.996C448.515 372.996 450.146 371.19 450.146 369.966C450.146 369.064 449.417 368.335 448.515 368.335ZM448.515 370.549C448.193 370.549 447.932 370.288 447.932 369.966C447.932 369.645 448.193 369.384 448.515 369.384C448.837 369.384 449.098 369.645 449.098 369.966C449.098 370.288 448.837 370.549 448.515 370.549Z" fill="#D2D2D2"/>
</g>
<path d="M482 83C482 90.732 475.732 97 468 97C460.268 97 454 90.732 454 83C454 75.268 460.268 69 468 69C475.732 69 482 75.268 482 83Z" fill="#C4C4C4"/>
<path d="M462 86.5003V89H464.5L471.872 81.6277L469.372 79.128L462 86.5003ZM473.805 79.6946C474.065 79.4347 474.065 79.0147 473.805 78.7548L472.245 77.195C471.985 76.935 471.565 76.935 471.305 77.195L470.086 78.4148L472.585 80.9145L473.805 79.6946Z" fill="white"/>
<path d="M423.195 97.1623H216.081C212.347 97.1623 208.765 95.6788 206.124 93.0381C203.484 90.3973 202 86.8157 202 83.0812C202 79.3466 203.484 75.765 206.124 73.1243C208.765 70.4835 212.347 69 216.081 69H423.195C426.929 69 430.511 70.4835 433.152 73.1243C435.792 75.765 437.276 79.3466 437.276 83.0812C437.276 86.8157 435.792 90.3973 433.152 93.0381C430.511 95.6788 426.929 97.1623 423.195 97.1623Z" fill="white"/>
<path d="M422.576 84.5472H422.034L421.842 84.3619C422.515 83.5798 422.919 82.5643 422.919 81.4597C422.919 78.9966 420.923 77 418.46 77C415.997 77 414 78.9966 414 81.4597C414 83.9228 415.997 85.9194 418.46 85.9194C419.564 85.9194 420.58 85.5146 421.362 84.8422L421.547 85.0343V85.5763L424.978 89L426 87.9777L422.576 84.5472ZM418.46 84.5472C416.751 84.5472 415.372 83.1681 415.372 81.4597C415.372 79.7513 416.751 78.3722 418.46 78.3722C420.168 78.3722 421.547 79.7513 421.547 81.4597C421.547 83.1681 420.168 84.5472 418.46 84.5472Z" fill="#8B8B8B"/>
<path d="M637.258 41.0169H0V17.5371C0 12.8859 1.84765 8.42533 5.13649 5.13649C8.42533 1.84765 12.886 0 17.5371 0L619.721 0C622.024 0 624.304 0.45361 626.432 1.33493C628.56 2.21625 630.493 3.50802 632.121 5.13649C633.75 6.76496 635.042 8.69823 635.923 10.8259C636.804 12.9536 637.258 15.2341 637.258 17.5371V41.0169Z" fill="#313338"/>
<path d="M35.9074 20.5093C35.9062 22.2897 35.3772 24.0297 34.3872 25.5095C33.3972 26.9892 31.9907 28.1422 30.3456 28.8227C28.7004 29.5032 26.8903 29.6807 25.1443 29.3326C23.3983 28.9846 21.7947 28.1266 20.5362 26.8673C19.2777 25.608 18.4208 24.0038 18.0739 22.2575C17.727 20.5113 17.9057 18.7014 18.5873 17.0566C19.2688 15.4119 20.4228 14.0062 21.9032 13.0172C23.3836 12.0282 25.124 11.5003 26.9044 11.5003C29.2921 11.5003 31.5821 12.4488 33.2705 14.1372C34.9589 15.8256 35.9074 18.1156 35.9074 20.5033" fill="#FF8686"/>
<path d="M62.2267 20.5093C62.2256 22.2897 61.6965 24.0297 60.7066 25.5095C59.7166 26.9892 58.3101 28.1422 56.6649 28.8227C55.0197 29.5032 53.2097 29.6807 51.4637 29.3326C49.7176 28.9846 48.114 28.1266 46.8555 26.8673C45.597 25.608 44.7402 24.0038 44.3933 22.2575C44.0464 20.5113 44.225 18.7014 44.9066 17.0566C45.5882 15.4119 46.7421 14.0062 48.2225 13.0172C49.7029 12.0282 51.4434 11.5003 53.2237 11.5003C55.6115 11.5003 57.9014 12.4488 59.5898 14.1372C61.2782 15.8256 62.2267 18.1156 62.2267 20.5033" fill="#FFE176"/>
<path d="M88.5441 20.5093C88.5429 22.2897 88.0139 24.0297 87.0239 25.5095C86.034 26.9892 84.6275 28.1422 82.9823 28.8227C81.3371 29.5032 79.5271 29.6807 77.781 29.3326C76.035 28.9846 74.4314 28.1266 73.1729 26.8673C71.9144 25.608 71.0575 24.0038 70.7106 22.2575C70.3637 20.5113 70.5424 18.7014 71.224 17.0566C71.9056 15.4119 73.0595 14.0062 74.5399 13.0172C76.0203 12.0282 77.7607 11.5003 79.5411 11.5003C81.9289 11.5003 84.2188 12.4488 85.9072 14.1372C87.5956 15.8256 88.5441 18.1156 88.5441 20.5033" fill="#85CF7E"/>
</g>
<defs>
<filter id="filter0_i_1500_12264" x="0" y="0" width="637.264" height="378.03" filterUnits="userSpaceOnUse" color-interpolation-filters="sRGB">
<feFlood flood-opacity="0" result="BackgroundImageFix"/>
<feBlend mode="normal" in="SourceGraphic" in2="BackgroundImageFix" result="shape"/>
<feColorMatrix in="SourceAlpha" type="matrix" values="0 0 0 0 0 0 0 0 0 0 0 0 0 0 0 0 0 0 127 0" result="hardAlpha"/>
<feOffset/>
<feGaussianBlur stdDeviation="5"/>
<feComposite in2="hardAlpha" operator="arithmetic" k2="-1" k3="1"/>
<feColorMatrix type="matrix" values="0 0 0 0 0 0 0 0 0 0 0 0 0 0 0 0 0 0 0.08 0"/>
<feBlend mode="normal" in2="shape" result="effect1_innerShadow_1500_12264"/>
</filter>
<clipPath id="clip0_1500_12264">
<rect width="361" height="105" fill="white" transform="translate(138 273)"/>
</clipPath>
</defs>
</svg>
