<svg width="746" height="536" viewBox="0 0 746 536" fill="none" xmlns="http://www.w3.org/2000/svg">
<g filter="url(#filter0_i_1500_12320)">
<path d="M718.41 450.873H116.59C111.924 450.873 107.451 449.02 104.152 445.721C100.853 442.423 99 437.949 99 433.284V90.5895C99 85.9245 100.853 81.4505 104.152 78.1519C107.451 74.8532 111.924 73 116.59 73H718.41C723.075 73 727.549 74.8532 730.848 78.1519C734.147 81.4505 736 85.9245 736 90.5895V433.284C736 437.949 734.147 442.423 730.848 445.721C727.549 449.02 723.075 450.873 718.41 450.873Z" fill="white"/>
</g>
<path d="M735.994 114.002H99V90.532C99 85.8828 100.847 81.424 104.134 78.1366C107.422 74.8491 111.881 73.0022 116.53 73.0022H718.464C720.766 73.0022 723.046 73.4556 725.172 74.3366C727.299 75.2175 729.232 76.5088 730.86 78.1366C732.487 79.7644 733.779 81.6968 734.659 83.8236C735.54 85.9504 735.994 88.23 735.994 90.532V114.002Z" fill="#383838"/>
<path d="M134.892 93.5038C134.891 95.2834 134.362 97.0228 133.373 98.5019C132.383 99.981 130.977 101.134 129.333 101.814C127.688 102.494 125.879 102.671 124.134 102.323C122.388 101.976 120.785 101.118 119.527 99.8592C118.269 98.6004 117.413 96.9968 117.066 95.2513C116.719 93.5058 116.898 91.6966 117.579 90.0526C118.26 88.4085 119.414 87.0034 120.894 86.0148C122.374 85.0262 124.113 84.4985 125.893 84.4985C128.28 84.4985 130.569 85.4467 132.256 87.1344C133.944 88.8221 134.892 91.1111 134.892 93.4978" fill="#FF8686"/>
<path d="M161.201 93.5038C161.2 95.2834 160.671 97.0228 159.681 98.5019C158.692 99.981 157.286 101.134 155.641 101.814C153.997 102.494 152.187 102.671 150.442 102.323C148.697 101.976 147.094 101.118 145.836 99.8592C144.578 98.6004 143.721 96.9968 143.375 95.2513C143.028 93.5058 143.206 91.6966 143.888 90.0526C144.569 88.4085 145.723 87.0034 147.202 86.0148C148.682 85.0262 150.422 84.4985 152.201 84.4985C154.588 84.4985 156.877 85.4467 158.565 87.1344C160.253 88.8221 161.201 91.1111 161.201 93.4978" fill="#FFE176"/>
<path d="M187.507 93.5038C187.506 95.2834 186.977 97.0228 185.988 98.5019C184.998 99.981 183.592 101.134 181.948 101.814C180.303 102.494 178.494 102.671 176.749 102.323C175.003 101.976 173.4 101.118 172.143 99.8592C170.885 98.6004 170.028 96.9968 169.681 95.2513C169.335 93.5058 169.513 91.6966 170.194 90.0526C170.876 88.4085 172.029 87.0034 173.509 86.0148C174.989 85.0262 176.728 84.4985 178.508 84.4985C180.895 84.4985 183.184 85.4467 184.872 87.1344C186.559 88.8221 187.507 91.1111 187.507 93.4978" fill="#85CF7E"/>
<path d="M522.195 170.162H315.081C311.347 170.162 307.765 168.679 305.124 166.038C302.484 163.397 301 159.816 301 156.081C301 152.347 302.484 148.765 305.124 146.124C307.765 143.484 311.347 142 315.081 142H522.195C525.929 142 529.511 143.484 532.152 146.124C534.792 148.765 536.276 152.347 536.276 156.081C536.276 159.816 534.792 163.397 532.152 166.038C529.511 168.679 525.929 170.162 522.195 170.162Z" fill="#F1F1F1"/>
<path d="M521.576 157.547H521.034L520.842 157.362C521.515 156.58 521.919 155.564 521.919 154.46C521.919 151.997 519.923 150 517.46 150C514.997 150 513 151.997 513 154.46C513 156.923 514.997 158.919 517.46 158.919C518.564 158.919 519.58 158.515 520.362 157.842L520.547 158.034V158.576L523.978 162L525 160.978L521.576 157.547ZM517.46 157.547C515.751 157.547 514.372 156.168 514.372 154.46C514.372 152.751 515.751 151.372 517.46 151.372C519.168 151.372 520.547 152.751 520.547 154.46C520.547 156.168 519.168 157.547 517.46 157.547Z" fill="#8B8B8B"/>
<path d="M295.467 262.669H203.482C202.552 262.666 201.661 262.296 201.004 261.638C200.346 260.98 199.975 260.089 199.973 259.159V201.34C199.975 200.41 200.346 199.519 201.004 198.861C201.661 198.204 202.552 197.833 203.482 197.83H295.467C296.397 197.833 297.288 198.204 297.946 198.861C298.603 199.519 298.974 200.41 298.977 201.34V259.159C298.974 260.089 298.603 260.98 297.946 261.638C297.288 262.296 296.397 262.666 295.467 262.669Z" fill="#F1F1F1"/>
<path d="M213.242 275.83C213.242 277.143 212.853 278.425 212.124 279.516C211.395 280.607 210.358 281.458 209.146 281.96C207.934 282.462 206.6 282.593 205.313 282.337C204.026 282.081 202.844 281.45 201.916 280.522C200.988 279.594 200.356 278.412 200.1 277.125C199.844 275.838 199.976 274.504 200.478 273.292C200.98 272.079 201.83 271.043 202.921 270.314C204.012 269.585 205.295 269.196 206.607 269.196C208.367 269.196 210.054 269.895 211.298 271.139C212.543 272.383 213.242 274.071 213.242 275.83Z" fill="#F1F1F1"/>
<path d="M234.16 269.775H219.27V275.831H234.16V269.775Z" fill="#F1F1F1"/>
<path d="M241.032 278.375H219.27V282.466H241.032V278.375Z" fill="#F1F1F1"/>
<path d="M216.867 297.923H204.207C203.084 297.923 202.007 297.477 201.213 296.683C200.42 295.889 199.974 294.812 199.974 293.689C199.974 292.567 200.42 291.49 201.213 290.696C202.007 289.902 203.084 289.456 204.207 289.456H216.867C217.989 289.456 219.066 289.902 219.86 290.696C220.654 291.49 221.1 292.567 221.1 293.689C221.1 294.812 220.654 295.889 219.86 296.683C219.066 297.477 217.989 297.923 216.867 297.923Z" fill="#F1F1F1"/>
<path d="M240.49 297.923H227.83C226.707 297.923 225.63 297.477 224.837 296.683C224.043 295.889 223.597 294.812 223.597 293.689C223.597 292.567 224.043 291.49 224.837 290.696C225.63 289.902 226.707 289.456 227.83 289.456H240.49C241.612 289.456 242.689 289.902 243.483 290.696C244.277 291.49 244.723 292.567 244.723 293.689C244.723 294.812 244.277 295.889 243.483 296.683C242.689 297.477 241.612 297.923 240.49 297.923Z" fill="#F1F1F1"/>
<path d="M269.895 297.923H251.474C250.352 297.923 249.275 297.477 248.481 296.683C247.687 295.889 247.241 294.812 247.241 293.689C247.241 292.567 247.687 291.49 248.481 290.696C249.275 289.902 250.352 289.456 251.474 289.456H269.895C271.018 289.456 272.095 289.902 272.889 290.696C273.683 291.49 274.129 292.567 274.129 293.689C274.129 294.812 273.683 295.889 272.889 296.683C272.095 297.477 271.018 297.923 269.895 297.923Z" fill="#F1F1F1"/>
<path d="M407.482 262.669H315.496C314.566 262.666 313.675 262.296 313.017 261.638C312.36 260.98 311.989 260.089 311.986 259.159V201.34C311.989 200.41 312.36 199.519 313.017 198.861C313.675 198.204 314.566 197.833 315.496 197.83H407.482C408.412 197.833 409.303 198.204 409.961 198.861C410.619 199.519 410.989 200.41 410.992 201.34V259.159C410.989 260.089 410.619 260.98 409.961 261.638C409.303 262.296 408.412 262.666 407.482 262.669Z" fill="#F1F1F1"/>
<path d="M325.255 275.83C325.255 277.143 324.866 278.425 324.137 279.516C323.408 280.607 322.372 281.458 321.16 281.96C319.947 282.462 318.613 282.593 317.327 282.337C316.04 282.081 314.857 281.45 313.93 280.522C313.002 279.594 312.37 278.412 312.114 277.125C311.858 275.838 311.989 274.504 312.491 273.292C312.993 272.079 313.844 271.043 314.935 270.314C316.026 269.585 317.309 269.196 318.621 269.196C320.38 269.196 322.068 269.895 323.312 271.139C324.556 272.383 325.255 274.071 325.255 275.83Z" fill="#F1F1F1"/>
<path d="M346.174 269.775H331.283V275.831H346.174V269.775Z" fill="#F1F1F1"/>
<path d="M353.045 278.375H331.283V282.466H353.045V278.375Z" fill="#F1F1F1"/>
<path d="M328.881 297.923H316.219C315.097 297.923 314.02 297.477 313.226 296.683C312.432 295.889 311.986 294.812 311.986 293.689C311.986 292.567 312.432 291.49 313.226 290.696C314.02 289.902 315.097 289.456 316.219 289.456H328.879C330.002 289.456 331.079 289.902 331.873 290.696C332.667 291.49 333.113 292.567 333.113 293.689C333.113 294.812 332.667 295.889 331.873 296.683C331.079 297.477 330.002 297.923 328.879 297.923" fill="#F1F1F1"/>
<path d="M352.497 297.923H339.837C338.714 297.923 337.637 297.477 336.843 296.683C336.05 295.889 335.604 294.812 335.604 293.689C335.604 292.567 336.05 291.49 336.843 290.696C337.637 289.902 338.714 289.456 339.837 289.456H352.497C353.619 289.456 354.696 289.902 355.49 290.696C356.284 291.49 356.73 292.567 356.73 293.689C356.73 294.812 356.284 295.889 355.49 296.683C354.696 297.477 353.619 297.923 352.497 297.923Z" fill="#F1F1F1"/>
<path d="M381.908 297.923H363.488C362.365 297.923 361.289 297.477 360.495 296.683C359.701 295.889 359.255 294.812 359.255 293.689C359.255 292.567 359.701 291.49 360.495 290.696C361.289 289.902 362.365 289.456 363.488 289.456H381.908C383.03 289.456 384.107 289.902 384.901 290.696C385.695 291.49 386.141 292.567 386.141 293.689C386.141 294.812 385.695 295.889 384.901 296.683C384.107 297.477 383.03 297.923 381.908 297.923Z" fill="#F1F1F1"/>
<path d="M519.496 262.669H427.51C426.58 262.666 425.689 262.296 425.031 261.638C424.373 260.98 424.003 260.089 424 259.159V201.34C424.003 200.41 424.373 199.519 425.031 198.861C425.689 198.204 426.58 197.833 427.51 197.83H519.496C520.426 197.833 521.317 198.204 521.975 198.861C522.632 199.519 523.003 200.41 523.006 201.34V259.159C523.003 260.089 522.632 260.98 521.975 261.638C521.317 262.296 520.426 262.666 519.496 262.669Z" fill="#F1F1F1"/>
<path d="M437.271 275.83C437.271 277.143 436.882 278.425 436.153 279.516C435.424 280.607 434.388 281.458 433.175 281.96C431.963 282.462 430.629 282.593 429.342 282.337C428.055 282.081 426.873 281.45 425.945 280.522C425.017 279.594 424.385 278.412 424.129 277.125C423.873 275.838 424.005 274.504 424.507 273.292C425.009 272.079 425.859 271.043 426.951 270.314C428.042 269.585 429.324 269.196 430.636 269.196C432.396 269.196 434.084 269.895 435.328 271.139C436.572 272.383 437.271 274.071 437.271 275.83Z" fill="#F1F1F1"/>
<path d="M458.186 269.775H443.296V275.831H458.186V269.775Z" fill="#F1F1F1"/>
<path d="M465.058 278.375H443.296V282.466H465.058V278.375Z" fill="#F1F1F1"/>
<path d="M440.894 297.923H428.234C427.111 297.923 426.035 297.477 425.241 296.683C424.447 295.889 424.001 294.812 424.001 293.689C424.001 292.567 424.447 291.49 425.241 290.696C426.035 289.902 427.111 289.456 428.234 289.456H440.894C442.017 289.456 443.093 289.902 443.887 290.696C444.681 291.49 445.127 292.567 445.127 293.689C445.127 294.812 444.681 295.889 443.887 296.683C443.093 297.477 442.017 297.923 440.894 297.923Z" fill="#F1F1F1"/>
<path d="M464.516 297.923H451.856C450.734 297.923 449.657 297.477 448.863 296.683C448.069 295.889 447.623 294.812 447.623 293.689C447.623 292.567 448.069 291.49 448.863 290.696C449.657 289.902 450.734 289.456 451.856 289.456H464.516C465.639 289.456 466.716 289.902 467.509 290.696C468.303 291.49 468.749 292.567 468.749 293.689C468.749 294.812 468.303 295.889 467.509 296.683C466.716 297.477 465.639 297.923 464.516 297.923Z" fill="#F1F1F1"/>
<path d="M493.923 297.923H475.502C474.379 297.923 473.302 297.477 472.508 296.683C471.715 295.889 471.269 294.812 471.269 293.689C471.269 292.567 471.715 291.49 472.508 290.696C473.302 289.902 474.379 289.456 475.502 289.456H493.923C495.045 289.456 496.122 289.902 496.916 290.696C497.71 291.49 498.156 292.567 498.156 293.689C498.156 294.812 497.71 295.889 496.916 296.683C496.122 297.477 495.045 297.923 493.923 297.923Z" fill="#F1F1F1"/>
<path d="M631.509 262.669H539.523C538.593 262.666 537.702 262.296 537.045 261.638C536.387 260.98 536.016 260.089 536.014 259.159V201.34C536.016 200.41 536.387 199.519 537.045 198.861C537.702 198.204 538.593 197.833 539.523 197.83H631.509C632.439 197.833 633.331 198.204 633.988 198.861C634.646 199.519 635.017 200.41 635.019 201.34V259.159C635.017 260.089 634.646 260.98 633.988 261.638C633.331 262.296 632.439 262.666 631.509 262.669Z" fill="#FFF3ED"/>
<path d="M549.285 275.83C549.285 277.143 548.896 278.425 548.167 279.516C547.438 280.607 546.401 281.458 545.189 281.96C543.977 282.462 542.643 282.593 541.356 282.337C540.069 282.081 538.887 281.45 537.959 280.522C537.031 279.594 536.399 278.412 536.143 277.125C535.887 275.838 536.018 274.504 536.521 273.292C537.023 272.079 537.873 271.043 538.964 270.314C540.055 269.585 541.338 269.196 542.65 269.196C544.41 269.196 546.097 269.895 547.341 271.139C548.586 272.383 549.285 274.071 549.285 275.83Z" fill="#F1F1F1"/>
<path d="M570.2 269.775H555.31V275.831H570.2V269.775Z" fill="#F1F1F1"/>
<path d="M577.072 278.375H555.31V282.466H577.072V278.375Z" fill="#F1F1F1"/>
<path d="M552.908 297.923H540.248C539.125 297.923 538.048 297.477 537.255 296.683C536.461 295.889 536.015 294.812 536.015 293.689C536.015 292.567 536.461 291.49 537.255 290.696C538.048 289.902 539.125 289.456 540.248 289.456H552.908C554.03 289.456 555.107 289.902 555.901 290.696C556.695 291.49 557.141 292.567 557.141 293.689C557.141 294.812 556.695 295.889 555.901 296.683C555.107 297.477 554.03 297.923 552.908 297.923Z" fill="#F1F1F1"/>
<path d="M576.53 297.923H563.87C562.747 297.923 561.67 297.477 560.877 296.683C560.083 295.889 559.637 294.812 559.637 293.689C559.637 292.567 560.083 291.49 560.877 290.696C561.67 289.902 562.747 289.456 563.87 289.456H576.53C577.653 289.456 578.729 289.902 579.523 290.696C580.317 291.49 580.763 292.567 580.763 293.689C580.763 294.812 580.317 295.889 579.523 296.683C578.729 297.477 577.653 297.923 576.53 297.923Z" fill="#F1F1F1"/>
<path d="M605.935 297.923H587.514C586.392 297.923 585.315 297.477 584.521 296.683C583.727 295.889 583.281 294.812 583.281 293.689C583.281 292.567 583.727 291.49 584.521 290.696C585.315 289.902 586.392 289.456 587.514 289.456H605.935C607.058 289.456 608.135 289.902 608.929 290.696C609.723 291.49 610.169 292.567 610.169 293.689C610.169 294.812 609.723 295.889 608.929 296.683C608.135 297.477 607.058 297.923 605.935 297.923Z" fill="#F1F1F1"/>
<path d="M295.467 378.773H203.482C202.552 378.77 201.661 378.4 201.004 377.742C200.346 377.084 199.975 376.193 199.973 375.263V317.444C199.975 316.514 200.346 315.623 201.004 314.965C201.661 314.308 202.552 313.937 203.482 313.934H295.467C296.397 313.937 297.288 314.308 297.946 314.965C298.603 315.623 298.974 316.514 298.977 317.444V375.263C298.974 376.193 298.603 377.084 297.946 377.742C297.288 378.4 296.397 378.77 295.467 378.773Z" fill="#F1F1F1"/>
<path d="M213.242 391.933C213.242 393.246 212.853 394.528 212.124 395.619C211.395 396.71 210.358 397.561 209.146 398.063C207.934 398.565 206.6 398.696 205.313 398.44C204.026 398.184 202.844 397.552 201.916 396.625C200.988 395.697 200.356 394.515 200.1 393.228C199.844 391.941 199.976 390.607 200.478 389.394C200.98 388.182 201.83 387.146 202.921 386.417C204.012 385.688 205.295 385.299 206.607 385.299C208.367 385.299 210.054 385.998 211.298 387.242C212.543 388.486 213.242 390.174 213.242 391.933Z" fill="#F1F1F1"/>
<path d="M234.16 385.879H219.27V391.935H234.16V385.879Z" fill="#F1F1F1"/>
<path d="M241.032 394.479H219.27V398.57H241.032V394.479Z" fill="#F1F1F1"/>
<path d="M216.867 414.026H204.207C203.098 414.005 202.042 413.55 201.265 412.759C200.488 411.967 200.053 410.902 200.053 409.793C200.053 408.684 200.488 407.619 201.265 406.828C202.042 406.036 203.098 405.581 204.207 405.56H216.867C217.43 405.549 217.989 405.651 218.512 405.859C219.034 406.067 219.511 406.377 219.912 406.771C220.314 407.165 220.633 407.636 220.851 408.155C221.068 408.673 221.18 409.23 221.18 409.793C221.18 410.356 221.068 410.913 220.851 411.432C220.633 411.951 220.314 412.421 219.912 412.815C219.511 413.209 219.034 413.519 218.512 413.727C217.989 413.935 217.43 414.037 216.867 414.026Z" fill="#F1F1F1"/>
<path d="M240.489 414.026H227.829C226.72 414.005 225.664 413.55 224.887 412.759C224.11 411.967 223.675 410.902 223.675 409.793C223.675 408.684 224.11 407.619 224.887 406.828C225.664 406.036 226.72 405.581 227.829 405.56H240.489C241.052 405.549 241.611 405.651 242.134 405.859C242.656 406.067 243.133 406.377 243.534 406.771C243.936 407.165 244.255 407.636 244.473 408.155C244.69 408.673 244.803 409.23 244.803 409.793C244.803 410.356 244.69 410.913 244.473 411.432C244.255 411.951 243.936 412.421 243.534 412.815C243.133 413.209 242.656 413.519 242.134 413.727C241.611 413.935 241.052 414.037 240.489 414.026Z" fill="#F1F1F1"/>
<path d="M269.896 414.026H251.475C250.366 414.005 249.309 413.55 248.532 412.759C247.756 411.967 247.32 410.902 247.32 409.793C247.32 408.684 247.756 407.619 248.532 406.828C249.309 406.036 250.366 405.581 251.475 405.56H269.896C270.458 405.549 271.017 405.651 271.54 405.859C272.063 406.067 272.539 406.377 272.941 406.771C273.342 407.165 273.661 407.636 273.879 408.155C274.097 408.673 274.209 409.23 274.209 409.793C274.209 410.356 274.097 410.913 273.879 411.432C273.661 411.951 273.342 412.421 272.941 412.815C272.539 413.209 272.063 413.519 271.54 413.727C271.017 413.935 270.458 414.037 269.896 414.026Z" fill="#F1F1F1"/>
<path d="M407.482 378.773H315.496C314.566 378.77 313.675 378.4 313.017 377.742C312.36 377.084 311.989 376.193 311.986 375.263V317.444C311.989 316.514 312.36 315.623 313.017 314.965C313.675 314.308 314.566 313.937 315.496 313.934H407.482C408.412 313.937 409.303 314.308 409.961 314.965C410.619 315.623 410.989 316.514 410.992 317.444V375.263C410.989 376.193 410.619 377.084 409.961 377.742C409.303 378.4 408.412 378.77 407.482 378.773Z" fill="#F1F1F1"/>
<path d="M325.255 391.933C325.255 393.246 324.866 394.528 324.137 395.619C323.408 396.71 322.372 397.561 321.16 398.063C319.947 398.565 318.613 398.696 317.327 398.44C316.04 398.184 314.857 397.552 313.93 396.625C313.002 395.697 312.37 394.515 312.114 393.228C311.858 391.941 311.989 390.607 312.491 389.394C312.993 388.182 313.844 387.146 314.935 386.417C316.026 385.688 317.309 385.299 318.621 385.299C320.38 385.299 322.068 385.998 323.312 387.242C324.556 388.486 325.255 390.174 325.255 391.933Z" fill="#F1F1F1"/>
<path d="M346.174 385.879H331.283V391.935H346.174V385.879Z" fill="#F1F1F1"/>
<path d="M353.045 394.479H331.283V398.57H353.045V394.479Z" fill="#F1F1F1"/>
<path d="M464.578 394.479H442.815V398.57H464.578V394.479Z" fill="#F1F1F1"/>
<path d="M328.88 414.026H316.219C315.11 414.005 314.053 413.55 313.277 412.759C312.5 411.967 312.064 410.902 312.064 409.793C312.064 408.684 312.5 407.619 313.277 406.828C314.053 406.036 315.11 405.581 316.219 405.56H328.879C329.441 405.549 330 405.651 330.523 405.859C331.046 406.067 331.522 406.377 331.924 406.771C332.325 407.165 332.644 407.636 332.862 408.155C333.08 408.673 333.192 409.23 333.192 409.793C333.192 410.356 333.08 410.913 332.862 411.432C332.644 411.951 332.325 412.421 331.924 412.815C331.522 413.209 331.046 413.519 330.523 413.727C330 413.935 329.441 414.037 328.879 414.026" fill="#F1F1F1"/>
<path d="M352.497 414.026H339.837C338.728 414.005 337.672 413.55 336.895 412.759C336.118 411.967 335.683 410.902 335.683 409.793C335.683 408.684 336.118 407.619 336.895 406.828C337.672 406.036 338.728 405.581 339.837 405.56H352.497C353.06 405.549 353.619 405.651 354.141 405.859C354.664 406.067 355.14 406.377 355.542 406.771C355.944 407.165 356.263 407.636 356.48 408.155C356.698 408.673 356.81 409.23 356.81 409.793C356.81 410.356 356.698 410.913 356.48 411.432C356.263 411.951 355.944 412.421 355.542 412.815C355.14 413.209 354.664 413.519 354.141 413.727C353.619 413.935 353.06 414.037 352.497 414.026Z" fill="#F1F1F1"/>
<path d="M381.907 414.026H363.487C362.378 414.005 361.322 413.55 360.545 412.759C359.768 411.967 359.333 410.902 359.333 409.793C359.333 408.684 359.768 407.619 360.545 406.828C361.322 406.036 362.378 405.581 363.487 405.56H381.907C382.47 405.549 383.029 405.651 383.551 405.859C384.074 406.067 384.55 406.377 384.952 406.771C385.354 407.165 385.673 407.636 385.89 408.155C386.108 408.673 386.22 409.23 386.22 409.793C386.22 410.356 386.108 410.913 385.89 411.432C385.673 411.951 385.354 412.421 384.952 412.815C384.55 413.209 384.074 413.519 383.551 413.727C383.029 413.935 382.47 414.037 381.907 414.026Z" fill="#F1F1F1"/>
<path d="M519.496 378.773H427.51C426.58 378.77 425.689 378.4 425.031 377.742C424.373 377.084 424.003 376.193 424 375.263V317.444C424.003 316.514 424.373 315.623 425.031 314.965C425.689 314.308 426.58 313.937 427.51 313.934H519.496C520.426 313.937 521.317 314.308 521.975 314.965C522.632 315.623 523.003 316.514 523.006 317.444V375.263C523.003 376.193 522.632 377.084 521.975 377.742C521.317 378.4 520.426 378.77 519.496 378.773Z" fill="#FFF3ED"/>
<path d="M437.271 391.933C437.271 393.246 436.882 394.528 436.153 395.619C435.424 396.71 434.388 397.561 433.175 398.063C431.963 398.565 430.629 398.696 429.342 398.44C428.055 398.184 426.873 397.552 425.945 396.625C425.017 395.697 424.385 394.515 424.129 393.228C423.873 391.941 424.005 390.607 424.507 389.394C425.009 388.182 425.859 387.146 426.951 386.417C428.042 385.688 429.324 385.299 430.636 385.299C432.396 385.299 434.084 385.998 435.328 387.242C436.572 388.486 437.271 390.174 437.271 391.933Z" fill="#F1F1F1"/>
<path d="M457.706 385.879H442.815V391.935H457.706V385.879Z" fill="#F1F1F1"/>
<path d="M440.894 414.026H428.235C427.126 414.005 426.069 413.55 425.292 412.759C424.515 411.967 424.08 410.902 424.08 409.793C424.08 408.684 424.515 407.619 425.292 406.828C426.069 406.036 427.126 405.581 428.235 405.56H440.894C441.457 405.549 442.016 405.651 442.539 405.859C443.062 406.067 443.538 406.377 443.939 406.771C444.341 407.165 444.66 407.636 444.878 408.155C445.096 408.673 445.208 409.23 445.208 409.793C445.208 410.356 445.096 410.913 444.878 411.432C444.66 411.951 444.341 412.421 443.939 412.815C443.538 413.209 443.062 413.519 442.539 413.727C442.016 413.935 441.457 414.037 440.894 414.026Z" fill="#F1F1F1"/>
<path d="M464.516 414.026H451.857C450.748 414.005 449.691 413.55 448.914 412.759C448.137 411.967 447.702 410.902 447.702 409.793C447.702 408.684 448.137 407.619 448.914 406.828C449.691 406.036 450.748 405.581 451.857 405.56H464.516C465.079 405.549 465.638 405.651 466.161 405.859C466.684 406.067 467.16 406.377 467.562 406.771C467.963 407.165 468.282 407.636 468.5 408.155C468.718 408.673 468.83 409.23 468.83 409.793C468.83 410.356 468.718 410.913 468.5 411.432C468.282 411.951 467.963 412.421 467.562 412.815C467.16 413.209 466.684 413.519 466.161 413.727C465.638 413.935 465.079 414.037 464.516 414.026Z" fill="#F1F1F1"/>
<path d="M493.922 414.026H475.501C474.392 414.005 473.336 413.55 472.559 412.759C471.782 411.967 471.347 410.902 471.347 409.793C471.347 408.684 471.782 407.619 472.559 406.828C473.336 406.036 474.392 405.581 475.501 405.56H493.922C494.485 405.549 495.044 405.651 495.567 405.859C496.089 406.067 496.566 406.377 496.967 406.771C497.369 407.165 497.688 407.636 497.906 408.155C498.123 408.673 498.236 409.23 498.236 409.793C498.236 410.356 498.123 410.913 497.906 411.432C497.688 411.951 497.369 412.421 496.967 412.815C496.566 413.209 496.089 413.519 495.567 413.727C495.044 413.935 494.485 414.037 493.922 414.026Z" fill="#F1F1F1"/>
<path d="M631.509 378.773H539.523C538.593 378.77 537.702 378.4 537.045 377.742C536.387 377.084 536.016 376.193 536.014 375.263V317.444C536.016 316.514 536.387 315.623 537.045 314.965C537.702 314.308 538.593 313.937 539.523 313.934H631.509C632.439 313.937 633.331 314.308 633.988 314.965C634.646 315.623 635.017 316.514 635.019 317.444V375.263C635.017 376.193 634.646 377.084 633.988 377.742C633.331 378.4 632.439 378.77 631.509 378.773Z" fill="#F1F1F1"/>
<path d="M549.285 391.933C549.285 393.246 548.896 394.528 548.167 395.619C547.438 396.71 546.401 397.561 545.189 398.063C543.977 398.565 542.643 398.696 541.356 398.44C540.069 398.184 538.887 397.552 537.959 396.625C537.031 395.697 536.399 394.515 536.143 393.228C535.887 391.941 536.018 390.607 536.521 389.394C537.023 388.182 537.873 387.146 538.964 386.417C540.055 385.688 541.338 385.299 542.65 385.299C544.41 385.299 546.097 385.998 547.341 387.242C548.586 388.486 549.285 390.174 549.285 391.933Z" fill="#F1F1F1"/>
<path d="M570.2 385.879H555.31V391.935H570.2V385.879Z" fill="#F1F1F1"/>
<path d="M577.072 394.479H555.31V398.57H577.072V394.479Z" fill="#F1F1F1"/>
<path d="M552.907 414.026H540.247C539.138 414.005 538.082 413.55 537.305 412.759C536.528 411.967 536.093 410.902 536.093 409.793C536.093 408.684 536.528 407.619 537.305 406.828C538.082 406.036 539.138 405.581 540.247 405.56H552.907C553.47 405.549 554.029 405.651 554.552 405.859C555.074 406.067 555.551 406.377 555.952 406.771C556.354 407.165 556.673 407.636 556.891 408.155C557.108 408.673 557.22 409.23 557.22 409.793C557.22 410.356 557.108 410.913 556.891 411.432C556.673 411.951 556.354 412.421 555.952 412.815C555.551 413.209 555.074 413.519 554.552 413.727C554.029 413.935 553.47 414.037 552.907 414.026Z" fill="#F1F1F1"/>
<path d="M576.53 414.026H563.87C562.761 414.005 561.705 413.55 560.928 412.759C560.151 411.967 559.716 410.902 559.716 409.793C559.716 408.684 560.151 407.619 560.928 406.828C561.705 406.036 562.761 405.581 563.87 405.56H576.53C577.093 405.549 577.652 405.651 578.175 405.859C578.697 406.067 579.174 406.377 579.575 406.771C579.977 407.165 580.296 407.636 580.514 408.155C580.731 408.673 580.844 409.23 580.844 409.793C580.844 410.356 580.731 410.913 580.514 411.432C580.296 411.951 579.977 412.421 579.575 412.815C579.174 413.209 578.697 413.519 578.175 413.727C577.652 413.935 577.093 414.037 576.53 414.026Z" fill="#F1F1F1"/>
<path d="M605.935 414.026H587.514C586.405 414.005 585.348 413.55 584.572 412.759C583.795 411.967 583.359 410.902 583.359 409.793C583.359 408.684 583.795 407.619 584.572 406.828C585.348 406.036 586.405 405.581 587.514 405.56H605.935C606.497 405.549 607.057 405.651 607.579 405.859C608.102 406.067 608.578 406.377 608.98 406.771C609.382 407.165 609.701 407.636 609.918 408.155C610.136 408.673 610.248 409.23 610.248 409.793C610.248 410.356 610.136 410.913 609.918 411.432C609.701 411.951 609.382 412.421 608.98 412.815C608.578 413.209 608.102 413.519 607.579 413.727C607.057 413.935 606.497 414.037 605.935 414.026Z" fill="#F1F1F1"/>
<path d="M622.418 191.922H607.91C607.141 191.922 606.403 192.239 605.859 192.804C605.314 193.368 605.009 194.133 605.009 194.931V219.004L615.164 214.49L625.32 219.004V194.931C625.32 194.133 625.014 193.368 624.47 192.804C623.926 192.239 623.188 191.922 622.418 191.922Z" fill="#FF6814"/>
<path d="M509.677 309.667H495.169C494.4 309.667 493.662 309.984 493.117 310.549C492.573 311.113 492.268 311.878 492.268 312.676V336.749L502.423 332.235L512.579 336.749V312.676C512.579 311.878 512.273 311.113 511.729 310.549C511.185 309.984 510.447 309.667 509.677 309.667Z" fill="#FF6814"/>
<mask id="mask0_1500_12320" style="mask-type:alpha" maskUnits="userSpaceOnUse" x="520" y="197" width="116" height="66">
<rect x="520.526" y="197.81" width="114.801" height="64.7597" fill="#C4C4C4"/>
</mask>
<g mask="url(#mask0_1500_12320)">
<path d="M545.201 237.526C545.667 237.368 546.094 237.112 546.452 236.774C546.81 236.436 547.091 236.025 547.274 235.568C547.472 235.084 549.202 230.759 549.761 228.095C549.947 227.21 549.774 226.286 549.28 225.528C548.785 224.77 548.01 224.24 547.124 224.053C546.239 223.867 545.316 224.04 544.558 224.535C543.8 225.029 543.269 225.804 543.083 226.69C542.714 228.45 541.415 231.854 540.948 233.017C540.703 233.622 540.638 234.284 540.758 234.925C540.879 235.567 541.181 236.16 541.629 236.634C542.077 237.109 542.651 237.445 543.284 237.603C543.917 237.761 544.583 237.734 545.201 237.526Z" fill="#9B4210"/>
<path d="M525.374 234.582C525.705 233.954 526.205 233.431 526.818 233.073C527.432 232.715 528.133 232.536 528.842 232.556C528.281 231.871 527.978 231.011 527.984 230.125C527.989 229.239 528.305 228.383 528.875 227.705C529.445 227.027 530.234 226.57 531.105 226.412C531.977 226.254 532.876 226.405 533.648 226.84C533.418 225.986 533.493 225.078 533.86 224.273C534.228 223.469 534.864 222.817 535.661 222.432C536.457 222.046 537.363 221.951 538.222 222.161C539.081 222.372 539.84 222.876 540.367 223.586C540.589 223.886 540.817 224.217 541.049 224.572C541.049 224.572 542.833 226.895 545.763 230.37C552.789 237.925 556.933 237.055 556.933 237.055L548.836 251.85C539.429 247.011 526.967 239.705 526.967 239.705C526.078 239.235 525.411 238.432 525.113 237.472C524.814 236.512 524.908 235.473 525.374 234.582Z" fill="#9B4210"/>
<path d="M604.881 237.524C604.414 237.367 603.987 237.111 603.629 236.773C603.271 236.435 602.991 236.023 602.807 235.567C602.612 235.082 600.883 230.758 600.324 228.094C600.227 227.654 600.217 227.199 600.297 226.755C600.377 226.311 600.544 225.888 600.788 225.509C601.032 225.13 601.349 224.804 601.721 224.548C602.092 224.292 602.51 224.113 602.951 224.02C603.393 223.927 603.848 223.923 604.291 224.007C604.734 224.091 605.155 224.262 605.532 224.51C605.908 224.758 606.231 225.079 606.483 225.453C606.735 225.827 606.91 226.247 606.999 226.689C607.37 228.449 608.666 231.852 609.134 233.016C609.378 233.621 609.444 234.283 609.323 234.924C609.202 235.565 608.9 236.158 608.452 236.633C608.005 237.108 607.43 237.444 606.797 237.602C606.164 237.76 605.499 237.733 604.881 237.524Z" fill="#9B4210"/>
<path d="M604.318 230.385C607.244 226.896 609.024 224.566 609.024 224.566C609.256 224.225 609.485 223.884 609.706 223.581C610.234 222.87 610.992 222.366 611.852 222.156C612.711 221.945 613.617 222.041 614.413 222.426C615.209 222.812 615.846 223.463 616.213 224.268C616.58 225.072 616.656 225.98 616.425 226.834C617.197 226.398 618.097 226.244 618.97 226.402C619.843 226.559 620.633 227.016 621.204 227.695C621.775 228.374 622.091 229.231 622.096 230.117C622.102 231.004 621.797 231.865 621.234 232.551C622.093 232.526 622.935 232.792 623.622 233.307C624.31 233.822 624.803 234.555 625.021 235.386C625.238 236.217 625.168 237.097 624.821 237.883C624.474 238.669 623.871 239.314 623.11 239.713C623.11 239.713 610.644 247.019 601.238 251.858L593.137 237.063C593.137 237.063 597.292 237.939 604.318 230.385Z" fill="#9B4210"/>
<path d="M596.231 260.591C598.431 259.728 602.404 270.523 604.625 270.591C605.239 270.549 605.843 270.408 606.412 270.172C609.396 269.244 612.704 270.397 614.734 272.706C617.121 275.411 616.934 278.692 614.843 281.543C612.145 285.23 607.547 288.78 603.23 290.261C601.06 291.008 598.721 291.014 596.725 289.763C592.633 287.191 590.586 281.297 587.687 277.515C586.906 276.492 586.077 275.469 585.586 274.282C584.222 270.987 586.732 268.992 589.195 267.31C591.971 265.414 593.1 261.836 596.231 260.591Z" fill="#9B4210"/>
<path d="M554.198 258.821C552.018 257.914 547.813 268.62 545.592 268.641C544.979 268.641 544.399 268.378 543.812 268.184C540.852 267.195 537.516 268.276 535.439 270.54C533.007 273.194 533.116 276.478 535.142 279.374C537.765 283.126 542.284 286.765 546.568 288.337C548.723 289.129 551.06 289.187 553.082 287.979C557.24 285.493 559.412 279.644 562.38 275.922C563.181 274.899 564.034 273.917 564.549 272.734C565.975 269.473 563.526 267.423 561.087 265.69C558.345 263.733 557.301 260.131 554.198 258.821Z" fill="#9B4210"/>
<path d="M554.198 233.61C554.181 232.276 554.331 231.096 554.256 229.759C554.181 228.422 553.888 226.989 553.867 225.666C553.847 224.537 553.867 223.408 553.959 222.279C553.959 222.259 554.075 219.275 554.075 219.257C554.369 215.724 555.081 214.793 556.691 211.904C558.168 209.254 560.31 207.538 563.199 205.86C563.774 205.526 564.364 205.219 564.969 204.94C567.871 203.621 571.008 202.898 574.195 202.815C574.195 202.815 579.771 202.392 582.694 199.772C582.772 199.697 582.869 199.644 582.974 199.619C583.08 199.593 583.19 199.596 583.294 199.627C583.398 199.657 583.492 199.715 583.566 199.794C583.641 199.873 583.693 199.97 583.717 200.076C584.032 201.442 584.097 202.854 583.912 204.244C583.912 204.326 583.881 204.401 583.864 204.479C585.03 204.946 586.153 205.843 587.22 206.525C588.243 207.167 589.198 207.549 590.085 208.371C590.758 208.988 591.381 209.657 591.947 210.373C592.846 211.513 593.603 212.758 594.202 214.08C595.286 216.375 595.978 218.835 596.248 221.358C596.432 223.125 596.2 225.131 596.248 226.908C596.296 228.685 596.078 229.333 596.064 231.11C596.064 231.689 596.309 233.405 596.313 233.985C597.56 235.115 598.701 236.356 599.724 237.692C600.924 239.264 601.691 241.696 602.52 243.49C604.045 246.829 605.146 249.81 605.146 253.77C605.146 255.738 604.256 258.361 603.857 260.141C603.131 263.405 602.449 265.598 600.573 268.149C598.98 270.322 597.053 271.628 594.792 273.224C593.857 273.886 592.831 275.087 591.801 275.639C587.653 277.863 584.805 278.739 579.549 279.05C578.731 279.101 575.873 279.595 575.037 279.595C572.479 279.611 569.926 279.374 567.414 278.889C565.893 278.586 565.504 278.327 564.089 277.846C562.827 277.416 560.525 276.782 559.362 276.219C558.199 275.656 556.865 274.173 555.811 273.49C553.246 271.802 551.255 270.578 549.491 268.177C547.162 264.998 546.333 263.289 545.821 259.036C545.695 258.013 544.918 254.885 544.918 253.797C544.91 249.961 545.736 246.169 547.339 242.683C548.941 239.198 551.281 236.102 554.198 233.61Z" fill="white"/>
<path d="M575.04 279.969C575.545 279.969 576.667 279.809 577.751 279.655C578.515 279.546 579.235 279.444 579.573 279.423C584.709 279.11 587.605 278.301 591.964 275.962C592.639 275.551 593.264 275.064 593.826 274.509C594.195 274.159 594.584 273.831 594.992 273.526L595.299 273.308C597.444 271.797 599.296 270.491 600.852 268.373C602.707 265.846 603.43 263.649 604.194 260.238C604.3 259.758 604.447 259.215 604.6 258.632C605.016 257.053 605.49 255.266 605.49 253.792C605.49 249.942 604.515 247.056 602.83 243.369C602.598 242.861 602.373 242.309 602.148 241.722C601.534 240.214 600.896 238.652 600.009 237.493C599.004 236.178 597.885 234.956 596.663 233.84C596.663 233.53 596.599 233.062 596.547 232.578C596.483 231.998 596.418 231.401 596.421 231.122C596.421 230.341 596.476 229.785 596.524 229.242C596.606 228.466 596.634 227.686 596.605 226.906C596.582 226.183 596.605 225.433 596.629 224.641C596.689 223.538 596.676 222.432 596.592 221.33C596.316 218.771 595.614 216.276 594.515 213.949C593.906 212.6 593.134 211.331 592.216 210.17C591.639 209.438 591.003 208.754 590.316 208.123C589.719 207.606 589.061 207.162 588.358 206.8C588.048 206.626 587.724 206.459 587.403 206.241C587.083 206.023 586.793 205.838 586.483 205.627C585.779 205.116 585.034 204.665 584.255 204.28C584.441 202.856 584.373 201.41 584.054 200.01C584.017 199.85 583.939 199.703 583.828 199.584C583.717 199.464 583.576 199.376 583.42 199.327C583.258 199.276 583.085 199.267 582.919 199.304C582.753 199.341 582.6 199.42 582.475 199.535C579.672 202.046 574.235 202.486 574.18 202.489H574.143C570.929 202.583 567.767 203.314 564.839 204.641C564.225 204.928 563.618 205.241 563.041 205.576C559.682 207.53 557.761 209.327 556.404 211.749C556.247 212.036 556.097 212.302 555.954 212.554C554.665 214.836 554.02 215.985 553.747 219.239C553.747 219.256 553.747 219.256 553.686 220.869C553.658 221.568 553.635 222.233 553.631 222.274C553.549 223.298 553.519 224.42 553.539 225.685C553.565 226.459 553.635 227.231 553.747 227.997C553.822 228.594 553.897 229.212 553.931 229.781C553.972 230.525 553.931 231.207 553.911 231.933C553.89 232.424 553.866 232.929 553.87 233.458C550.951 235.979 548.612 239.102 547.013 242.612C545.413 246.121 544.591 249.935 544.603 253.792C544.603 254.495 544.9 255.941 545.162 257.203C545.316 257.96 545.463 258.676 545.504 259.058C546.022 263.369 546.892 265.16 549.238 268.359C550.92 270.655 552.789 271.882 555.152 273.434L555.643 273.758C556.121 274.101 556.576 274.472 557.008 274.87C557.674 275.506 558.415 276.058 559.214 276.514C560.335 276.993 561.484 277.399 562.656 277.732C563.15 277.889 563.611 278.032 563.979 278.155C564.399 278.298 564.726 278.421 565.023 278.533C565.775 278.834 566.554 279.062 567.349 279.215C569.882 279.717 572.458 279.97 575.04 279.969ZM583.103 199.962C583.132 199.957 583.162 199.957 583.191 199.962C583.234 199.976 583.273 200.001 583.304 200.034C583.334 200.068 583.356 200.109 583.365 200.153C583.67 201.479 583.733 202.849 583.553 204.198C583.543 204.262 583.529 204.326 583.512 204.389C583.491 204.469 583.5 204.554 583.537 204.628C583.574 204.702 583.636 204.76 583.713 204.791C584.546 205.17 585.337 205.635 586.073 206.179C586.391 206.398 586.704 206.613 587.015 206.807C587.325 207.001 587.68 207.206 588 207.387C588.657 207.724 589.272 208.137 589.832 208.618C590.492 209.221 591.102 209.877 591.657 210.579C592.54 211.697 593.284 212.92 593.87 214.218C594.938 216.477 595.62 218.897 595.889 221.381C595.971 222.452 595.982 223.528 595.923 224.6C595.899 225.368 595.876 226.162 595.899 226.909C595.925 227.662 595.899 228.415 595.821 229.164C595.773 229.716 595.722 230.289 595.715 231.094C595.715 231.415 595.777 232.005 595.845 232.629C595.903 233.161 595.961 233.714 595.964 233.993C595.964 234.041 595.974 234.088 595.994 234.131C596.013 234.175 596.041 234.214 596.077 234.246C597.307 235.361 598.434 236.586 599.443 237.905C600.275 238.993 600.893 240.508 601.49 241.974C601.732 242.568 601.96 243.131 602.199 243.649C603.843 247.251 604.794 250.064 604.794 253.789C604.794 255.174 604.334 256.916 603.925 258.455C603.771 259.041 603.625 259.594 603.515 260.088C602.758 263.479 602.08 265.522 600.289 267.964C598.799 270.01 596.987 271.272 594.893 272.738L594.586 272.953C594.157 273.271 593.746 273.613 593.355 273.977C592.832 274.496 592.252 274.953 591.626 275.341C587.369 277.626 584.539 278.41 579.518 278.721C579.153 278.745 578.42 278.847 577.642 278.96C576.619 279.103 575.483 279.266 575.026 279.266C572.492 279.271 569.964 279.027 567.478 278.537C566.719 278.392 565.975 278.174 565.258 277.885C564.958 277.773 564.624 277.65 564.197 277.503C563.771 277.357 563.355 277.23 562.857 277.073C561.717 276.749 560.599 276.355 559.508 275.893C558.767 275.461 558.08 274.942 557.461 274.348C557.003 273.929 556.519 273.54 556.012 273.182L555.517 272.841C553.212 271.326 551.387 270.129 549.777 267.929C547.471 264.792 546.673 263.155 546.169 258.953C546.121 258.543 545.978 257.848 545.828 257.043C545.571 255.96 545.388 254.862 545.282 253.755C545.271 249.969 546.084 246.226 547.664 242.785C549.244 239.344 551.554 236.289 554.433 233.83C554.469 233.797 554.499 233.757 554.519 233.713C554.539 233.668 554.549 233.619 554.549 233.57C554.549 233.004 554.566 232.455 554.59 231.923C554.633 231.185 554.639 230.445 554.607 229.706C554.576 229.113 554.494 228.485 554.419 227.875C554.311 227.133 554.244 226.386 554.218 225.637C554.197 224.396 554.218 223.298 554.31 222.285C554.31 222.285 554.31 222.285 554.364 220.862C554.392 220.098 554.422 219.297 554.426 219.252C554.682 216.156 555.268 215.122 556.544 212.854L556.997 212.049C558.29 209.73 560.139 208.018 563.382 206.132C563.942 205.808 564.525 205.504 565.122 205.228C567.983 203.932 571.074 203.22 574.214 203.134C574.237 203.137 574.26 203.137 574.283 203.134C574.917 203.079 580.081 202.564 582.929 200.013C582.98 199.978 583.041 199.96 583.103 199.962Z" fill="#9B4210"/>
<path d="M578.811 220.768C579.122 221.389 580.056 221.924 580.759 221.392C581.376 220.922 581.717 220.134 581.407 219.513C581.218 219.184 580.92 218.931 580.564 218.798C580.209 218.665 579.818 218.661 579.459 218.786C578.692 219.063 578.501 220.151 578.811 220.768Z" fill="#9B4210"/>
<path d="M572.924 222.24C573.234 222.861 574.169 223.396 574.871 222.864C575.488 222.393 575.83 221.606 575.519 220.985C575.33 220.655 575.032 220.403 574.677 220.27C574.321 220.137 573.93 220.133 573.572 220.258C572.804 220.535 572.613 221.623 572.924 222.24Z" fill="#9B4210"/>
<path d="M582.312 231.739H582.374L582.715 231.685C583.087 231.64 583.451 231.542 583.796 231.395C584.231 231.181 584.655 230.943 585.065 230.682C585.163 230.617 585.286 230.545 585.406 230.47C585.715 230.304 586.01 230.111 586.286 229.894C586.764 229.455 587.157 228.931 587.445 228.349L587.64 228.008C587.903 227.558 588.119 227.083 588.284 226.589C588.528 225.857 588.649 225.089 588.642 224.318C588.641 224.191 588.632 224.065 588.615 223.939C588.571 223.671 588.463 223.418 588.299 223.201C588.136 222.984 587.922 222.81 587.677 222.694C587.438 222.581 587.175 222.528 586.911 222.54C586.648 222.552 586.39 222.628 586.163 222.762C585.865 222.934 585.557 223.089 585.242 223.226C585.105 223.284 584.966 223.356 584.822 223.424C584.602 223.541 584.374 223.643 584.14 223.731C583.742 223.85 583.337 223.94 582.926 224C582.708 224.038 582.489 224.075 582.264 224.123L581.923 224.212C581.714 224.277 581.497 224.318 581.279 224.335C581.181 224.33 581.085 224.318 580.989 224.301C580.852 224.274 580.712 224.259 580.573 224.256C580.482 224.256 580.395 224.292 580.332 224.356C580.268 224.42 580.232 224.507 580.232 224.597C580.232 224.688 580.268 224.775 580.332 224.838C580.395 224.902 580.482 224.938 580.573 224.938C580.644 224.938 580.757 224.955 580.863 224.972C581.005 225.003 581.15 225.017 581.296 225.017C581.564 224.998 581.83 224.949 582.087 224.87L582.401 224.792C582.619 224.747 582.831 224.71 583.039 224.672C583.481 224.606 583.917 224.508 584.345 224.379C584.614 224.284 584.876 224.17 585.129 224.038C585.262 223.97 585.395 223.905 585.522 223.85C585.86 223.703 586.19 223.537 586.511 223.352C586.643 223.274 586.793 223.229 586.947 223.222C587.101 223.215 587.255 223.246 587.394 223.311C587.54 223.381 587.667 223.485 587.764 223.615C587.86 223.744 587.924 223.895 587.95 224.055C587.961 224.146 587.967 224.237 587.967 224.328C587.973 225.023 587.863 225.715 587.643 226.374C587.493 226.823 587.298 227.255 587.06 227.663L586.859 228.005C586.605 228.519 586.258 228.981 585.835 229.369C585.59 229.554 585.331 229.72 585.061 229.867C584.921 229.949 584.788 230.024 584.686 230.092C584.306 230.336 583.912 230.557 583.506 230.754C583.216 230.88 582.909 230.961 582.595 230.996L582.254 231.054C582.21 231.062 582.168 231.079 582.13 231.103C582.093 231.128 582.06 231.159 582.035 231.197C582.009 231.234 581.992 231.275 581.983 231.319C581.973 231.363 581.973 231.409 581.981 231.453C581.994 231.532 582.034 231.604 582.095 231.656C582.155 231.708 582.232 231.738 582.312 231.739Z" fill="#9B4210"/>
<path d="M588.962 223.51C588.839 224.223 588.396 224.816 587.257 224.714C586.452 224.642 585.8 223.616 585.923 222.903C586.046 222.19 586.946 221.675 587.765 221.723C588.583 221.771 589.081 222.797 588.962 223.51Z" fill="#9B4210"/>
<path d="M591.672 258.153C595.204 262.653 594.238 266.515 593.311 269.779C592.231 273.591 589.678 276.398 584.787 276.566C581.427 276.681 577.458 276.835 573.273 274.391C569.087 276.837 565.149 275.62 561.788 275.505C556.898 275.336 552.771 274.11 551.69 270.3C550.765 267.036 553.092 262.656 556.624 258.156C553.092 253.653 552.739 249.936 553.664 246.675C554.746 242.86 556.863 239.754 561.754 239.585C565.114 239.469 569.09 240.64 573.273 243.085C577.458 240.641 581.458 238.576 584.819 238.687C589.709 238.86 594.355 242.002 595.436 245.813C596.361 249.078 595.203 253.653 591.672 258.153Z" fill="#FFF3ED"/>
</g>
<ellipse opacity="0.25" cx="115" cy="471.5" rx="87" ry="21.5" fill="#FF6814"/>
<g clip-path="url(#clip0_1500_12320)">
<path d="M102.272 405.966C107.327 409.718 88.5495 433.933 91.5296 439.045C92.4924 440.374 93.6647 441.538 95.0005 442.491C101.309 447.923 103.375 457.023 101.024 464.869C98.2838 474.081 90.6061 478.289 81.2133 477.591C69.0745 476.701 54.563 471.327 45.1236 463.661C40.3753 459.814 37.055 454.539 37.0664 448.264C37.0985 435.388 47.525 422.442 51.9777 410.555C53.1868 407.346 54.3284 404.029 56.3164 401.244C61.8336 393.511 69.8851 396.365 77.1599 399.555C85.3635 403.15 95.0398 400.65 102.272 405.966Z" fill="#313338"/>
<path d="M189.903 319.88C188.66 319.461 187.523 318.778 186.57 317.878C185.616 316.978 184.869 315.882 184.379 314.665C183.852 313.375 179.245 301.854 177.755 294.758C177.273 292.404 177.742 289.956 179.06 287.947C180.378 285.939 182.438 284.533 184.789 284.039C187.14 283.544 189.591 284 191.606 285.307C193.622 286.614 195.038 288.666 195.545 291.014C196.527 295.703 199.989 304.77 201.234 307.869C201.885 309.48 202.06 311.245 201.738 312.953C201.416 314.661 200.611 316.241 199.418 317.506C198.225 318.77 196.695 319.666 195.008 320.087C193.322 320.508 191.55 320.436 189.903 319.88Z" fill="#313338"/>
<path d="M242.72 312.04C241.838 310.367 240.505 308.975 238.872 308.021C237.239 307.067 235.371 306.59 233.48 306.643C234.975 304.817 235.784 302.526 235.769 300.166C235.753 297.806 234.913 295.526 233.395 293.719C231.876 291.913 229.774 290.694 227.452 290.273C225.13 289.852 222.734 290.256 220.678 291.415C221.293 289.139 221.094 286.719 220.115 284.574C219.136 282.429 217.439 280.693 215.317 279.665C213.195 278.638 210.781 278.383 208.491 278.946C206.202 279.509 204.18 280.853 202.776 282.747C202.185 283.548 201.577 284.428 200.96 285.373C200.96 285.373 196.207 291.56 188.402 300.82C169.687 320.943 158.646 318.627 158.646 318.627L180.215 358.042C205.275 345.15 238.473 325.687 238.473 325.687C240.841 324.435 242.616 322.297 243.412 319.739C244.207 317.182 243.958 314.414 242.718 312.04" fill="#313338"/>
<path d="M154.522 393.75C160.809 393.608 160.882 424.249 166.373 426.45C167.897 427.044 169.59 426.954 171.234 427.039C179.538 427.45 186.772 433.363 189.733 440.994C193.199 449.934 189.748 457.98 181.917 463.205C171.776 469.977 157.037 474.635 144.881 474.391C138.766 474.267 132.912 472.149 129.061 467.194C121.149 457 121.419 440.381 117.656 428.272C116.657 424.956 115.492 421.693 115.36 418.257C114.978 408.784 123.04 406.068 130.769 404.128C139.47 401.924 145.547 393.996 154.518 393.75" fill="#313338"/>
<path d="M165.935 309.45C165.98 305.898 165.58 302.754 165.782 299.192C165.984 295.631 166.763 291.814 166.818 288.289C166.872 285.282 166.818 282.274 166.572 279.267C166.572 279.212 166.263 271.262 166.263 271.219C165.482 261.805 163.583 259.325 159.294 251.629C155.36 244.569 149.654 239.999 141.959 235.529C140.426 234.639 138.854 233.821 137.243 233.076C129.512 229.563 121.154 227.638 112.666 227.415C112.666 227.415 97.809 226.287 90.0219 219.309C89.8135 219.109 89.5559 218.967 89.2752 218.899C88.9945 218.831 88.7008 218.838 88.4238 218.92C88.1469 219.003 87.8967 219.157 87.6985 219.367C87.5004 219.577 87.3615 219.836 87.2959 220.117C86.4587 223.757 86.2832 227.518 86.7779 231.22C86.7976 231.433 86.8403 231.644 86.9053 231.847C83.7979 233.092 80.8087 235.482 77.9648 237.299C75.2388 239.007 72.6947 240.025 70.3326 242.214C68.5403 243.858 66.8813 245.641 65.3714 247.548C62.9776 250.585 60.961 253.901 59.366 257.424C56.4761 263.536 54.6333 270.091 53.9143 276.814C53.4238 281.52 54.0413 286.863 53.9143 291.596C53.7873 296.33 54.3686 298.056 54.4048 302.79C54.4048 304.335 53.7507 308.905 53.7419 310.45C50.4205 313.46 47.3793 316.766 44.6557 320.326C41.4575 324.514 39.4131 330.993 37.2054 335.774C33.144 344.669 30.209 352.61 30.209 363.16C30.209 368.402 32.5807 375.39 33.6437 380.133C35.579 388.829 37.3961 394.67 42.3935 401.467C46.6364 407.254 51.77 410.736 57.7941 414.986C60.2837 416.749 63.0196 419.948 65.7624 421.419C76.8106 427.343 84.3975 429.678 98.3991 430.505C100.58 430.642 108.194 431.959 110.42 431.959C117.234 431.999 124.035 431.367 130.726 430.075C134.778 429.266 135.814 428.576 139.585 427.295C142.946 426.15 149.079 424.46 152.178 422.96C155.277 421.461 158.829 417.509 161.637 415.692C168.47 411.194 173.776 407.932 178.473 401.536C184.679 393.068 186.887 388.516 188.25 377.186C188.586 374.46 190.658 366.128 190.658 363.23C190.677 353.01 188.477 342.908 184.208 333.622C179.939 324.336 173.705 316.089 165.935 309.45" fill="white"/>
<path d="M110.41 432.946C109.066 432.946 106.076 432.519 103.187 432.11C101.152 431.82 99.2345 431.547 98.3351 431.492C84.6516 430.657 76.9374 428.503 65.3258 422.27C63.5271 421.178 61.8623 419.879 60.365 418.4C59.3815 417.467 58.3438 416.593 57.2576 415.783L56.4398 415.201C50.7246 411.176 45.7913 407.696 41.6479 402.054C36.7055 395.321 34.7789 389.47 32.7436 380.384C32.4621 379.103 32.0712 377.658 31.6627 376.105C30.5539 371.898 29.291 367.137 29.291 363.213C29.291 352.955 31.8896 345.268 36.3782 335.445C36.9957 334.091 37.5957 332.619 38.1953 331.056C39.8308 327.041 41.5301 322.879 43.8922 319.79C46.5694 316.289 49.5521 313.032 52.8052 310.059C52.8052 309.232 52.978 307.987 53.1146 306.697C53.287 305.153 53.4579 303.563 53.4506 302.818C53.4506 300.737 53.3053 299.256 53.1779 297.811C52.9574 295.744 52.8846 293.665 52.9601 291.587C53.0234 289.661 52.9601 287.662 52.8964 285.554C52.7382 282.614 52.7716 279.667 52.9963 276.732C53.7301 269.915 55.6004 263.269 58.5296 257.07C60.1516 253.476 62.2082 250.095 64.6533 247.003C66.1916 245.053 67.884 243.23 69.7144 241.551C71.3065 240.173 73.0572 238.99 74.9296 238.026C75.7565 237.563 76.6196 237.117 77.4736 236.536C78.3277 235.954 79.1 235.464 79.927 234.9C81.8003 233.539 83.785 232.339 85.86 231.311C85.3656 227.518 85.5472 223.666 86.3962 219.936C86.4944 219.511 86.7021 219.12 86.9987 218.801C87.2952 218.483 87.6703 218.247 88.0863 218.118C88.5175 217.98 88.9776 217.959 89.4197 218.056C89.8619 218.154 90.2704 218.366 90.6037 218.673C98.0723 225.36 112.555 226.532 112.701 226.541H112.799C121.359 226.791 129.785 228.74 137.586 232.275C139.221 233.037 140.838 233.873 142.374 234.764C151.322 239.97 156.44 244.758 160.057 251.209C160.477 251.972 160.875 252.681 161.257 253.354C164.689 259.432 166.408 262.494 167.135 271.162C167.135 271.208 167.135 271.208 167.299 275.505C167.371 277.368 167.435 279.14 167.444 279.248C167.662 281.974 167.744 284.964 167.689 288.335C167.619 290.397 167.434 292.453 167.135 294.495C166.935 296.085 166.735 297.729 166.644 299.247C166.535 301.227 166.644 303.045 166.699 304.98C166.754 306.288 166.817 307.633 166.808 309.041C174.583 315.759 180.814 324.077 185.075 333.427C189.336 342.776 191.526 352.937 191.495 363.211C191.495 365.083 190.704 368.936 190.004 372.298C189.595 374.315 189.203 376.222 189.096 377.24C187.715 388.725 185.398 393.495 179.147 402.018C174.667 408.133 169.688 411.403 163.392 415.537L162.083 416.401C160.812 417.312 159.598 418.302 158.449 419.363C156.675 421.056 154.701 422.526 152.571 423.742C149.586 425.016 146.524 426.099 143.403 426.984C142.085 427.404 140.859 427.785 139.877 428.111C138.76 428.492 137.887 428.82 137.097 429.119C135.094 429.92 133.019 430.529 130.9 430.937C124.153 432.274 117.29 432.946 110.412 432.944L110.41 432.946ZM88.9312 219.809C88.8529 219.795 88.7729 219.795 88.6947 219.809C88.5798 219.845 88.4765 219.912 88.3953 220.001C88.314 220.09 88.2576 220.199 88.2316 220.317C87.4207 223.85 87.2514 227.5 87.7316 231.093C87.7586 231.265 87.795 231.435 87.8407 231.602C87.8968 231.815 87.8736 232.041 87.7754 232.239C87.6771 232.436 87.5106 232.591 87.3067 232.674C85.0869 233.683 82.9794 234.922 81.019 236.372C80.1722 236.953 79.3365 237.525 78.5092 238.044C77.6819 238.563 76.7375 239.107 75.8835 239.589C74.1334 240.486 72.4956 241.587 71.004 242.869C69.2456 244.477 67.6201 246.224 66.1432 248.094C63.7894 251.073 61.8091 254.329 60.2464 257.789C57.4023 263.805 55.5845 270.254 54.8684 276.87C54.6508 279.724 54.6205 282.589 54.7776 285.447C54.8409 287.491 54.9046 289.608 54.8409 291.598C54.773 293.602 54.8428 295.609 55.0499 297.604C55.1773 299.076 55.3138 300.602 55.3318 302.746C55.3318 303.601 55.1681 305.172 54.9885 306.835C54.8336 308.252 54.6795 309.724 54.6704 310.469C54.67 310.596 54.6432 310.721 54.5915 310.837C54.5399 310.953 54.4647 311.057 54.3706 311.142C51.0929 314.114 48.0913 317.377 45.4026 320.891C43.1858 323.79 41.5411 327.824 39.951 331.73C39.306 333.311 38.6972 334.81 38.061 336.193C33.6819 345.788 31.147 353.284 31.147 363.205C31.147 366.894 32.3737 371.537 33.4638 375.635C33.8726 377.199 34.2647 378.67 34.5542 379.987C36.5712 389.019 38.3791 394.461 43.1496 400.965C47.1202 406.417 51.9448 409.779 57.5234 413.686L58.3412 414.258C59.4845 415.105 60.5796 416.015 61.6214 416.983C63.0139 418.366 64.5595 419.585 66.2282 420.618C77.5671 426.705 85.1086 428.795 98.4831 429.622C99.4553 429.686 101.409 429.958 103.48 430.258C106.205 430.639 109.231 431.076 110.448 431.076C117.198 431.088 123.933 430.436 130.556 429.131C132.579 428.746 134.56 428.165 136.471 427.395C137.272 427.095 138.16 426.768 139.296 426.378C140.432 425.987 141.541 425.651 142.867 425.234C145.903 424.371 148.883 423.321 151.789 422.09C153.762 420.937 155.592 419.555 157.241 417.974C158.461 416.858 159.751 415.82 161.103 414.867L162.42 413.958C168.561 409.924 173.423 406.735 177.712 400.875C183.852 392.516 185.98 388.155 187.323 376.96C187.451 375.87 187.832 374.016 188.232 371.872C188.916 368.989 189.402 366.062 189.685 363.113C189.714 353.027 187.548 343.056 183.339 333.89C179.129 324.724 172.976 316.584 165.307 310.033C165.209 309.947 165.131 309.841 165.077 309.722C165.024 309.603 164.997 309.473 164.998 309.343C164.998 307.834 164.953 306.372 164.889 304.954C164.774 302.988 164.758 301.017 164.844 299.048C164.926 297.467 165.144 295.796 165.344 294.169C165.63 292.194 165.809 290.204 165.88 288.209C165.957 285.229 165.875 282.248 165.635 279.277L165.489 275.489C165.416 273.454 165.336 271.318 165.326 271.2C164.644 262.95 163.081 260.197 159.683 254.155L158.475 252.01C155.031 245.831 150.107 241.271 141.466 236.247C139.976 235.384 138.422 234.575 136.832 233.839C129.209 230.386 120.974 228.488 112.608 228.259C112.548 228.268 112.487 228.268 112.426 228.259C110.736 228.113 96.9807 226.741 89.3938 219.944C89.2579 219.85 89.0955 219.802 88.9304 219.807" fill="#313338"/>
<path d="M165.698 330.947C164.215 328.593 162.418 326.453 160.355 324.587C154.15 319.081 144.055 319.244 141.094 328.058C139.613 332.464 140.349 337.243 138.958 341.686C138.495 343.158 137.295 344.585 135.75 344.603C135.109 344.584 134.483 344.4 133.933 344.069C130.481 342.179 128.818 338.617 126.474 335.683C124.332 333.052 121.585 330.98 118.468 329.643C115.351 328.306 111.956 327.744 108.574 328.005C100.397 328.659 96.6992 334.574 91.6011 340.071C90.5015 341.261 88.9312 342.224 87.3292 341.97C82.9951 341.307 82.7861 335.074 81.5415 331.977C78.1889 323.882 67.4766 319.983 59.8898 324.508C58.7896 325.173 57.7816 325.98 56.8915 326.907C45.8703 338.437 43.7259 356.636 47.7236 371.555C52.2667 388.49 67.3405 404.265 86.3387 399.64C92.1992 398.222 96.7896 394.47 101.023 390.354C103.976 387.493 107.919 382.74 112.58 383.14C118.032 383.612 121.203 391.063 124.765 394.388C128.169 397.465 132.351 399.55 136.857 400.419C141.362 401.287 146.02 400.904 150.323 399.313C159.5 396.06 166.805 387.937 170.74 379.196C174.186 371.24 175.192 362.439 173.629 353.91C172.366 346.297 170.094 337.765 165.695 330.949" fill="#F1F1F1"/>
<path d="M42.6664 323.34L37.3379 338.826C40.3809 337.941 44.4388 336.873 49.8527 335.581C61.4803 332.198 68.865 329.681 68.865 329.681C69.9021 329.236 70.8972 328.84 71.8317 328.501C73.4879 327.907 75.2705 327.754 77.0036 328.058C78.7368 328.363 80.3607 329.114 81.715 330.237C83.0694 331.361 84.1074 332.818 84.7266 334.465C85.3459 336.113 85.525 337.893 85.2463 339.63C84.875 341.926 83.7325 344.027 82.0073 345.586C82.0016 345.591 81.9975 345.598 81.9956 345.605C81.9936 345.612 81.9939 345.62 81.9963 345.627C81.9988 345.634 82.0033 345.641 82.0093 345.645C82.0154 345.65 82.0226 345.652 82.0302 345.653C83.9044 345.81 85.6977 346.487 87.2086 347.607C88.7195 348.727 89.8882 350.246 90.5834 351.994C91.2787 353.741 91.4728 355.648 91.1442 357.5C90.8155 359.352 89.9771 361.075 88.7229 362.477C87.8847 363.388 87.3443 364.532 87.1739 365.758C87.0035 366.984 87.2113 368.233 87.7694 369.338C87.8042 369.405 87.8382 369.473 87.8712 369.54C88.6599 371.161 89.0014 372.962 88.8604 374.758C88.7193 376.555 88.1009 378.281 87.0691 379.758C86.0373 381.235 84.6296 382.41 82.9916 383.16C81.3535 383.911 79.5447 384.21 77.7521 384.028C77.7521 384.028 47.3334 382.289 20.9009 379.685C20.2791 379.623 19.675 379.442 19.122 379.151C15.7143 377.374 12.7779 374.813 10.5552 371.678C8.33259 368.543 6.88743 364.924 6.33905 361.121C4.56773 348.534 8.78472 330.752 42.6664 323.34Z" fill="#313338"/>
<path d="M90.7832 278.752C90.7832 275.464 90.9148 275.464 90.9148 272.176C90.9148 270.209 92.0011 267.984 93.6038 266.225C95.1226 264.559 97.1156 263.375 99.3743 263.375V263.457C101.633 263.457 103.63 264.555 105.149 266.222C106.751 267.98 107.781 270.209 107.781 272.176C107.781 275.464 107.705 275.464 107.705 278.752" stroke="#313338" stroke-width="1.64011" stroke-linecap="round" stroke-linejoin="round"/>
<path d="M116.037 278.751C116.037 275.464 116.178 275.464 116.178 272.175C116.178 270.209 117.102 267.853 118.705 266.094C120.224 264.428 122.361 263.201 124.619 263.201V263.292C126.878 263.292 128.828 264.598 130.347 266.264C131.948 268.023 133.175 270.209 133.175 272.177C133.175 275.465 133.206 275.465 133.206 278.753" stroke="#313338" stroke-width="1.64011" stroke-linecap="round" stroke-linejoin="round"/>
<path d="M109.09 300.279C108.958 300.167 108.86 300.019 108.808 299.854C108.756 299.688 108.752 299.511 108.796 299.343C108.841 299.175 108.932 299.023 109.059 298.905C109.186 298.786 109.344 298.707 109.515 298.675L110.423 298.522C111.26 298.43 112.078 298.213 112.85 297.877C113.932 297.353 114.982 296.765 115.993 296.114C116.266 295.933 116.62 295.733 116.993 295.515C117.713 295.125 118.402 294.681 119.055 294.188C120.181 293.155 121.105 291.923 121.781 290.553L122.315 289.645C122.949 288.557 123.469 287.407 123.869 286.212C124.456 284.455 124.747 282.613 124.732 280.761C124.732 280.518 124.717 280.275 124.687 280.034C124.618 279.609 124.448 279.206 124.19 278.861C123.932 278.516 123.594 278.239 123.206 278.053C122.834 277.878 122.426 277.797 122.016 277.816C121.605 277.835 121.206 277.954 120.853 278.162C120 278.653 119.12 279.096 118.217 279.489C117.881 279.634 117.527 279.807 117.173 279.988C116.498 280.34 115.8 280.644 115.083 280.897C113.943 281.241 112.78 281.503 111.603 281.679C111.049 281.778 110.486 281.878 109.904 281.997L109.068 282.206C108.382 282.415 107.675 282.546 106.96 282.596C106.572 282.598 106.185 282.558 105.806 282.478C105.551 282.43 105.293 282.4 105.034 282.387C104.793 282.387 104.561 282.291 104.391 282.121C104.221 281.951 104.125 281.72 104.125 281.479C104.125 281.238 104.221 281.007 104.391 280.836C104.561 280.666 104.793 280.57 105.034 280.57C105.406 280.578 105.777 280.617 106.142 280.688C106.398 280.735 106.656 280.766 106.915 280.779C107.497 280.734 108.073 280.624 108.631 280.452L109.54 280.216C110.139 280.088 110.722 279.987 111.302 279.889C112.396 279.727 113.477 279.487 114.537 279.171C115.159 278.937 115.766 278.664 116.354 278.353C116.736 278.172 117.108 277.981 117.472 277.826C118.312 277.46 119.131 277.047 119.925 276.59C120.532 276.233 121.216 276.03 121.919 275.999C122.622 275.967 123.323 276.108 123.959 276.409C124.613 276.718 125.181 277.182 125.617 277.759C126.052 278.337 126.34 279.012 126.458 279.725C126.504 280.059 126.528 280.396 126.53 280.734C126.549 282.79 126.226 284.834 125.577 286.785C125.136 288.101 124.561 289.367 123.86 290.565L123.343 291.473C122.577 293.024 121.529 294.42 120.253 295.589C119.518 296.168 118.734 296.682 117.91 297.124C117.591 297.324 117.264 297.515 117.001 297.688C115.91 298.382 114.781 299.016 113.621 299.587C112.702 299.98 111.732 300.24 110.74 300.359L109.832 300.505H109.672C109.458 300.501 109.253 300.423 109.092 300.283" fill="#313338"/>
<path d="M124.199 273.814C122.018 273.687 119.62 275.059 119.293 276.958C118.966 278.856 120.701 281.592 122.845 281.783C125.88 282.055 127.061 280.474 127.388 278.575C127.706 276.676 126.379 273.941 124.199 273.814Z" fill="#313338"/>
<g opacity="0.2">
<path d="M99.4824 290.36C99.4824 295.297 92.6378 299.054 84.3281 299.054C76.0185 299.054 69.3555 295.297 69.3555 290.36C69.3555 285.423 76.0193 281.531 84.3293 281.531C92.6393 281.531 99.4835 285.424 99.4835 290.36" fill="#FF6814"/>
<path d="M158.748 290.36C158.748 295.297 151.911 298.801 143.601 298.801C135.291 298.801 128.423 295.297 128.423 290.36C128.423 285.423 135.291 281.491 143.601 281.491C151.911 281.491 158.748 285.424 158.748 290.36Z" fill="#FF6814"/>
</g>
</g>
<defs>
<filter id="filter0_i_1500_12320" x="99" y="73" width="639" height="379.873" filterUnits="userSpaceOnUse" color-interpolation-filters="sRGB">
<feFlood flood-opacity="0" result="BackgroundImageFix"/>
<feBlend mode="normal" in="SourceGraphic" in2="BackgroundImageFix" result="shape"/>
<feColorMatrix in="SourceAlpha" type="matrix" values="0 0 0 0 0 0 0 0 0 0 0 0 0 0 0 0 0 0 127 0" result="hardAlpha"/>
<feOffset dx="2" dy="2"/>
<feGaussianBlur stdDeviation="6"/>
<feComposite in2="hardAlpha" operator="arithmetic" k2="-1" k3="1"/>
<feColorMatrix type="matrix" values="0 0 0 0 0.608333 0 0 0 0 0.258441 0 0 0 0 0.0633681 0 0 0 0.08 0"/>
<feBlend mode="normal" in2="shape" result="effect1_innerShadow_1500_12320"/>
</filter>
<clipPath id="clip0_1500_12320">
<rect width="237.87" height="259.668" fill="white" transform="translate(6 218)"/>
</clipPath>
</defs>
</svg>
