<svg width="435" height="453" viewBox="0 0 435 453" fill="none" xmlns="http://www.w3.org/2000/svg">
<path d="M347.029 166.158C345.004 165.474 343.151 164.36 341.597 162.892C340.043 161.424 338.825 159.636 338.027 157.653C337.169 155.549 329.662 136.761 327.234 125.189C326.426 121.341 327.177 117.33 329.323 114.037C331.469 110.745 334.835 108.44 338.679 107.63C342.523 106.821 346.531 107.573 349.821 109.721C353.111 111.869 355.414 115.237 356.223 119.084C357.822 126.73 363.462 141.517 365.491 146.57C366.551 149.198 366.836 152.076 366.312 154.861C365.788 157.647 364.476 160.224 362.533 162.286C360.589 164.348 358.096 165.808 355.347 166.495C352.599 167.181 349.712 167.064 347.029 166.158Z" fill="#313338"/>
<path d="M433.09 153.37C431.653 150.642 429.48 148.371 426.819 146.815C424.158 145.26 421.114 144.481 418.033 144.569C420.468 141.591 421.787 137.854 421.761 134.006C421.736 130.158 420.368 126.44 417.893 123.495C415.419 120.549 411.994 118.561 408.211 117.875C404.427 117.188 400.523 117.847 397.173 119.736C398.172 116.025 397.846 112.081 396.252 108.586C394.657 105.09 391.893 102.26 388.437 100.585C384.981 98.9101 381.049 98.4945 377.32 99.41C373.59 100.326 370.297 102.515 368.007 105.6C367.045 106.904 366.053 108.341 365.046 109.882C365.046 109.882 357.303 119.973 344.586 135.071C314.088 167.891 296.1 164.112 296.1 164.112L331.247 228.389C372.079 207.363 426.176 175.625 426.176 175.625C430.034 173.584 432.927 170.096 434.222 165.926C435.518 161.755 435.111 157.241 433.09 153.37Z" fill="#313338"/>
<path d="M87.9709 166.157C89.9957 165.474 91.8486 164.36 93.4024 162.891C94.9562 161.423 96.1741 159.636 96.9723 157.652C97.8162 155.548 105.322 136.76 107.75 125.188C108.173 123.276 108.212 121.299 107.866 119.371C107.521 117.444 106.797 115.604 105.736 113.958C104.675 112.313 103.299 110.894 101.687 109.783C100.075 108.673 98.2592 107.894 96.3444 107.49C94.4296 107.087 92.4539 107.067 90.5315 107.433C88.6091 107.798 86.7781 108.542 85.1445 109.62C83.5109 110.698 82.107 112.089 81.0141 113.714C79.9211 115.338 79.1608 117.163 78.777 119.084C77.1633 126.729 71.5374 141.516 69.5091 146.569C68.4484 149.197 68.1632 152.075 68.6875 154.861C69.2117 157.646 70.5234 160.223 72.4669 162.285C74.4104 164.347 76.904 165.808 79.6521 166.494C82.4002 167.181 85.2873 167.064 87.9709 166.157Z" fill="#313338"/>
<path d="M90.4136 135.132C77.7109 119.974 69.9827 109.854 69.9827 109.854C68.9759 108.372 67.984 106.891 67.0217 105.572C64.7323 102.487 61.439 100.297 57.7095 99.382C53.9801 98.4664 50.0483 98.882 46.5923 100.557C43.1362 102.232 40.3725 105.061 38.7776 108.557C37.1828 112.053 36.8568 115.997 37.8559 119.707C34.5057 117.81 30.5978 117.145 26.8093 117.828C23.0207 118.511 19.5902 120.498 17.112 123.446C14.6338 126.395 13.2641 130.117 13.2401 133.97C13.2162 137.822 14.5395 141.562 16.9808 144.541C13.2535 144.432 9.59945 145.591 6.61469 147.828C3.62993 150.065 1.49069 153.248 0.545948 156.858C-0.398798 160.468 -0.093289 164.292 1.41266 167.706C2.91861 171.12 5.5361 173.923 8.8381 175.656C8.8381 175.656 62.9503 207.394 103.782 228.42L138.944 164.144C138.944 164.144 120.912 167.952 90.4136 135.132Z" fill="#313338"/>
<path d="M125.517 266.365C115.968 262.616 98.7199 309.512 89.0819 309.809C86.4144 309.626 83.7943 309.01 81.3241 307.986C68.3697 303.956 54.0089 308.964 45.1999 318.995C34.8364 330.745 35.6507 344.999 44.7261 357.386C56.4369 373.403 76.394 388.828 95.1371 395.258C104.553 398.503 114.709 398.533 123.37 393.095C141.136 381.923 150.019 356.319 162.603 339.887C165.994 335.442 169.591 330.997 171.723 325.841C177.645 311.527 166.749 302.859 156.06 295.555C144.008 287.316 139.108 271.773 125.517 266.365Z" fill="#313338"/>
<path d="M307.974 258.661C317.434 254.719 335.689 301.23 345.327 301.319C347.992 301.319 350.509 300.178 353.055 299.333C365.906 295.036 380.385 299.733 389.401 309.572C399.957 321.099 399.484 335.368 390.689 347.948C379.304 364.247 359.688 380.056 341.093 386.887C331.736 390.324 321.594 390.576 312.815 385.331C294.768 374.53 285.337 349.118 272.457 332.953C268.978 328.508 265.276 324.241 263.041 319.099C256.852 304.934 267.482 296.029 278.068 288.502C289.971 279.997 294.501 264.35 307.974 258.661Z" fill="#313338"/>
<path d="M79.1769 434.671C82.9818 426.996 116.959 420.388 218.551 420.773C291.525 421.054 359.672 431.589 355.867 439.279C352.062 446.969 275.698 453 202.547 453C129.395 453 75.3572 442.361 79.1769 434.671Z" fill="#9B4210"/>
<path d="M307.973 149.148C308.047 143.355 307.396 138.228 307.721 132.42C308.047 126.612 309.32 120.388 309.409 114.639C309.498 109.735 309.409 104.831 309.01 99.9262C309.01 99.8373 308.506 86.8724 308.506 86.7983C307.233 71.4479 304.139 67.4029 297.151 54.8529C290.74 43.3401 281.443 35.8871 268.903 28.5972C266.406 27.1451 263.844 25.8116 261.219 24.5966C248.622 18.8681 235.004 15.729 221.172 15.3656C221.172 15.3656 196.965 13.5283 184.278 2.14882C183.938 1.8225 183.518 1.59199 183.061 1.48073C182.604 1.36947 182.125 1.38143 181.674 1.51541C181.222 1.64939 180.815 1.90062 180.492 2.24351C180.169 2.5864 179.943 3.00872 179.836 3.46754C178.472 9.40349 178.186 15.5366 178.992 21.5739C178.992 21.9295 179.125 22.2555 179.199 22.5963C174.136 24.6262 169.265 28.5231 164.631 31.4865C160.19 34.2721 156.044 35.9316 152.195 39.5025C149.275 42.1827 146.572 45.091 144.112 48.2C140.211 53.1529 136.925 58.5611 134.326 64.3061C129.617 74.2739 126.614 84.9624 125.443 95.9256C124.643 103.601 125.65 112.313 125.443 120.033C125.235 127.752 126.183 130.568 126.242 138.287C126.242 140.806 125.176 148.259 125.161 150.778C119.75 155.687 114.794 161.078 110.356 166.884C105.145 173.715 101.814 184.279 98.2163 192.073C91.5984 206.579 86.8164 219.529 86.8164 236.732C86.8164 245.281 90.6805 256.675 92.4127 264.41C95.5661 278.59 98.5271 288.117 106.67 299.2C113.584 308.638 121.949 314.313 131.764 321.248C135.821 324.122 140.277 329.338 144.748 331.738C162.751 341.399 175.113 345.207 197.928 346.555C201.481 346.777 213.888 348.926 217.515 348.926C228.618 348.992 239.701 347.965 250.604 345.859C257.207 344.54 258.895 343.414 265.039 341.325C270.517 339.458 280.51 336.702 285.558 334.257C290.607 331.812 296.396 325.367 300.97 322.403C312.104 315.069 320.75 309.75 328.404 299.318C338.516 285.509 342.113 278.086 344.334 259.609C344.882 255.164 348.258 241.577 348.258 236.85C348.289 220.184 344.704 203.71 337.748 188.567C330.793 173.425 320.633 159.975 307.973 149.148Z" fill="white"/>
<path d="M217.5 350.54C215.309 350.54 210.438 349.844 205.73 349.177C202.414 348.703 199.29 348.258 197.824 348.17C175.528 346.806 162.959 343.295 144.038 333.13C141.107 331.349 138.394 329.23 135.954 326.818C134.352 325.298 132.661 323.873 130.891 322.551L129.559 321.603C120.246 315.039 112.207 309.364 105.456 300.162C97.4022 289.183 94.2635 279.641 90.9472 264.824C90.4882 262.735 89.8516 260.379 89.1854 257.845C87.3792 250.985 85.3213 243.221 85.3213 236.82C85.3213 220.091 89.5555 207.556 96.8692 191.539C97.8759 189.331 98.853 186.931 99.8302 184.382C102.495 177.833 105.264 171.047 109.113 166.009C113.475 160.3 118.335 154.989 123.637 150.14C123.637 148.792 123.918 146.762 124.14 144.658C124.421 142.139 124.703 139.546 124.688 138.331C124.688 134.938 124.451 132.523 124.244 130.167C123.884 126.797 123.765 123.405 123.888 120.017C123.992 116.876 123.888 113.617 123.785 110.179C123.527 105.385 123.581 100.579 123.947 95.7917C125.143 84.6748 128.191 73.8369 132.964 63.7277C135.607 57.8676 138.958 52.354 142.942 47.3105C145.449 44.1307 148.206 41.1577 151.189 38.4203C153.783 36.1725 156.636 34.2426 159.687 32.6713C161.034 31.9156 162.44 31.1896 163.832 30.2413C165.224 29.293 166.482 28.4929 167.829 27.5742C170.882 25.3552 174.116 23.3973 177.497 21.7215C176.692 15.5348 176.987 9.25415 178.371 3.17063C178.531 2.4788 178.869 1.84106 179.352 1.32106C179.835 0.801071 180.446 0.41702 181.124 0.207235C181.827 -0.018102 182.576 -0.0531777 183.297 0.105586C184.017 0.264349 184.682 0.611284 185.225 1.11107C197.395 12.0164 220.994 13.9278 221.231 13.9426H221.394C235.343 14.3498 249.071 17.5279 261.782 23.2921C264.447 24.5367 267.082 25.8999 269.584 27.352C284.167 35.8421 292.502 43.6507 298.395 54.1707C299.076 55.4154 299.727 56.5711 300.349 57.6675C305.945 67.5801 308.743 72.5734 309.928 86.7089C309.928 86.7829 309.928 86.7829 310.194 93.7914C310.313 96.8289 310.416 99.7182 310.431 99.896C310.786 104.341 310.92 109.216 310.831 114.713C310.717 118.076 310.415 121.43 309.928 124.759C309.602 127.352 309.276 130.034 309.128 132.508C308.951 135.738 309.128 138.702 309.217 141.858C309.306 143.991 309.41 146.184 309.395 148.481C322.064 159.435 332.218 173 339.16 188.248C346.103 203.495 349.671 220.064 349.62 236.82C349.62 239.872 348.332 246.155 347.192 251.637C346.526 254.926 345.889 258.038 345.711 259.697C343.461 278.426 339.686 286.205 329.5 300.103C322.201 310.075 314.088 315.409 303.828 322.151L301.696 323.559C299.625 325.045 297.647 326.659 295.774 328.389C292.883 331.15 289.666 333.548 286.195 335.531C281.333 337.609 276.344 339.376 271.257 340.82C269.11 341.502 267.112 342.124 265.513 342.658C263.692 343.28 262.27 343.813 260.982 344.302C257.718 345.608 254.337 346.601 250.885 347.266C239.891 349.447 228.709 350.543 217.5 350.54ZM182.501 2.9632C182.374 2.94164 182.244 2.94164 182.116 2.9632C181.929 3.02335 181.761 3.13164 181.628 3.27724C181.496 3.42283 181.404 3.60064 181.361 3.79295C180.04 9.55444 179.764 15.5067 180.547 21.3659C180.59 21.6456 180.65 21.9227 180.725 22.1957C180.816 22.5435 180.778 22.9128 180.617 23.2345C180.456 23.5562 180.184 23.8084 179.851 23.9441C176.234 25.5891 172.8 27.6104 169.606 29.9746C168.229 30.9229 166.867 31.8563 165.52 32.7009C164.173 33.5455 162.633 34.4345 161.241 35.2198C158.39 36.683 155.721 38.4784 153.291 40.5687C150.426 43.1903 147.777 46.0395 145.37 49.0885C141.535 53.9464 138.308 59.2557 135.762 64.8982C131.127 74.7085 128.165 85.2255 126.997 96.0139C126.643 100.668 126.593 105.341 126.849 110.001C126.953 113.335 127.057 116.787 126.953 120.032C126.842 123.301 126.956 126.573 127.293 129.826C127.501 132.227 127.723 134.716 127.752 138.213C127.752 139.606 127.486 142.169 127.19 144.88C126.938 147.192 126.686 149.592 126.672 150.807C126.671 151.014 126.627 151.218 126.543 151.407C126.459 151.596 126.336 151.765 126.183 151.904C120.842 156.751 115.951 162.072 111.571 167.802C107.958 172.529 105.278 179.108 102.688 185.479C101.636 188.057 100.644 190.502 99.6081 192.754C92.4721 208.401 88.3415 220.625 88.3415 236.805C88.3415 242.821 90.3402 250.392 92.1168 257.075C92.783 259.623 93.4196 262.024 93.8934 264.172C97.1801 278.9 100.126 287.775 107.899 298.384C114.369 307.275 122.23 312.757 131.32 319.128L132.653 320.062C134.516 321.443 136.3 322.927 137.997 324.507C140.266 326.761 142.785 328.75 145.504 330.434C163.98 340.361 176.268 343.769 198.061 345.117C199.645 345.221 202.828 345.665 206.204 346.154C210.645 346.777 215.576 347.488 217.559 347.488C228.558 347.508 239.532 346.446 250.323 344.317C253.62 343.69 256.848 342.742 259.961 341.487C261.264 340.998 262.715 340.465 264.565 339.828C266.416 339.19 268.222 338.642 270.384 337.961C275.331 336.553 280.186 334.841 284.922 332.834C288.136 330.954 291.118 328.701 293.805 326.122C295.794 324.302 297.896 322.61 300.097 321.054L302.244 319.573C312.252 312.994 320.173 307.793 327.161 298.236C337.169 284.605 340.633 277.492 342.824 259.238C343.032 257.46 343.653 254.437 344.305 250.94C345.419 246.239 346.211 241.467 346.674 236.657C346.72 220.209 343.191 203.948 336.332 189.001C329.473 174.054 319.448 160.779 306.952 150.096C306.792 149.955 306.664 149.782 306.578 149.588C306.491 149.393 306.447 149.183 306.449 148.97C306.449 146.51 306.375 144.125 306.271 141.813C306.082 138.606 306.057 135.392 306.197 132.182C306.33 129.604 306.685 126.878 307.011 124.225C307.478 121.004 307.769 117.759 307.885 114.506C307.973 109.112 307.885 104.341 307.485 99.9404C307.485 99.9404 307.485 99.9404 307.248 93.7617C307.13 90.4427 306.996 86.9607 306.981 86.7681C305.871 73.3143 303.325 68.8247 297.788 58.9714L295.819 55.4746C290.207 45.3991 282.183 37.9609 268.104 29.7671C265.676 28.3595 263.144 27.0408 260.553 25.8406C248.132 20.2103 234.713 17.1174 221.083 16.743C220.985 16.7585 220.885 16.7585 220.787 16.743C218.033 16.5059 195.618 14.2686 183.256 3.18544C183.035 3.03247 182.77 2.95458 182.501 2.9632Z" fill="#313338"/>
<path d="M209.476 83.1817C208.129 85.8784 204.072 88.2046 201.022 85.8932C198.342 83.8484 196.862 80.4257 198.209 77.729C199.029 76.2986 200.323 75.2001 201.867 74.6237C203.411 74.0473 205.107 74.0294 206.663 74.573C209.994 75.7732 210.823 80.4998 209.476 83.1817Z" fill="#313338"/>
<path d="M224.843 77.6251C226.102 74.8839 228.53 72.9874 232.912 74.6617C236.08 75.8174 237.561 80.5885 236.317 83.3593C235.074 86.13 230.869 87.1672 227.656 86.1004C224.444 85.0336 223.6 80.3514 224.843 77.6251Z" fill="#313338"/>
<path d="M201.377 126.7C199.377 126.484 197.419 125.985 195.559 125.219C191.956 123.308 188.453 121.216 185.062 118.951C182.412 116.625 181.287 114.18 179.495 111.128C178.402 109.251 177.509 107.265 176.83 105.201C175.82 102.184 175.32 99.0187 175.35 95.8366C175.344 95.3407 175.379 94.8452 175.454 94.3549C175.592 93.4414 175.95 92.5753 176.498 91.8316C177.046 91.0878 177.766 90.4887 178.597 90.0861C179.428 89.6834 180.344 89.4893 181.267 89.5206C182.189 89.5518 183.091 89.8075 183.892 90.2654C185.231 91.044 186.616 91.7417 188.038 92.3546C189.607 93.051 191.384 94.0734 192.997 94.6068C195.729 95.3344 198.496 95.918 201.288 96.3552C202.778 96.8039 204.303 97.1212 205.848 97.3035C206.781 97.3035 208.01 96.9479 208.957 96.9627" fill="white"/>
<path d="M201.378 128.183H201.111L199.631 127.946C198.014 127.751 196.434 127.327 194.937 126.686C193.046 125.756 191.208 124.722 189.43 123.59C189.001 123.308 188.468 122.997 187.949 122.671C186.606 121.949 185.328 121.111 184.13 120.167C182.052 118.26 180.345 115.984 179.096 113.455L178.252 111.973C177.11 110.02 176.172 107.955 175.454 105.809C174.396 102.628 173.871 99.2938 173.9 95.9412C173.903 95.3909 173.943 94.8415 174.018 94.2965C174.209 93.1326 174.679 92.0325 175.388 91.0906C176.097 90.1486 177.024 89.3929 178.089 88.8883C179.126 88.3975 180.267 88.1679 181.413 88.2195C182.559 88.2712 183.674 88.6025 184.663 89.1846C185.957 89.9299 187.291 90.6026 188.66 91.1997C189.252 91.4516 189.859 91.7628 190.481 92.0591C191.439 92.5656 192.428 93.011 193.442 93.3926C195.169 93.9086 196.93 94.2998 198.713 94.5632C199.66 94.7262 200.608 94.8891 201.585 95.0966L203.065 95.4818C203.975 95.7632 204.914 95.9421 205.864 96.0153C206.286 95.9933 206.706 95.9438 207.122 95.8671C207.717 95.7517 208.322 95.6872 208.928 95.6744C209.321 95.6744 209.697 95.8306 209.975 96.1084C210.253 96.3863 210.409 96.7632 210.409 97.1561C210.409 97.5491 210.253 97.926 209.975 98.2039C209.697 98.4817 209.321 98.6378 208.928 98.6378C208.617 98.6378 208.129 98.7119 207.67 98.786C207.052 98.917 206.421 98.9815 205.79 98.9787C204.624 98.8972 203.472 98.6835 202.355 98.3415L200.993 98.0007C200.045 97.8081 199.127 97.6451 198.224 97.4821C196.306 97.195 194.411 96.7691 192.554 96.2079C191.385 95.7947 190.247 95.2996 189.149 94.7262C188.571 94.4298 187.994 94.1483 187.446 93.9112C185.976 93.2707 184.542 92.5485 183.153 91.748C182.577 91.4075 181.926 91.2133 181.258 91.1823C180.589 91.1513 179.923 91.2845 179.318 91.5702C178.685 91.873 178.134 92.3251 177.714 92.8877C177.294 93.4503 177.016 94.1066 176.905 94.8002C176.855 95.1934 176.831 95.5893 176.831 95.9856C176.806 99.0064 177.281 102.011 178.237 104.876C178.888 106.824 179.736 108.701 180.769 110.477L181.643 111.958C182.744 114.192 184.25 116.201 186.084 117.885C187.149 118.689 188.272 119.413 189.445 120.048C190.052 120.404 190.629 120.73 191.073 121.026C192.721 122.087 194.432 123.047 196.196 123.901C197.453 124.448 198.786 124.803 200.149 124.953L201.629 125.205C201.821 125.24 202.004 125.313 202.167 125.42C202.331 125.526 202.471 125.664 202.581 125.825C202.691 125.986 202.769 126.168 202.808 126.359C202.848 126.55 202.85 126.747 202.814 126.938C202.758 127.281 202.584 127.594 202.321 127.822C202.059 128.049 201.725 128.177 201.378 128.183Z" fill="#313338"/>
<path d="M172.507 92.4276C173.04 95.5243 174.965 98.1025 179.91 97.658C183.403 97.3468 186.231 92.8869 185.698 89.7902C185.165 86.6934 181.257 84.456 177.704 84.6635C174.15 84.8709 171.989 89.3308 172.507 92.4276Z" fill="#313338"/>
<path d="M307.588 184.204C305.172 180.366 302.243 176.877 298.883 173.833C288.771 164.853 272.323 165.12 267.496 179.493C265.083 186.679 266.282 194.473 264.017 201.718C263.262 204.118 261.308 206.445 258.791 206.474C257.745 206.443 256.725 206.141 255.83 205.6C250.204 202.518 247.495 196.71 243.675 191.924C240.186 187.635 235.71 184.255 230.63 182.075C225.551 179.894 220.02 178.978 214.509 179.404C201.185 180.471 195.159 190.116 186.854 199.081C185.062 201.022 182.501 202.592 179.895 202.177C172.833 201.096 172.493 190.931 170.464 185.879C165.001 172.677 147.546 166.32 135.184 173.699C133.392 174.783 131.749 176.098 130.299 177.611C112.34 196.414 108.846 226.092 115.36 250.422C122.763 278.04 147.324 303.763 178.282 296.221C187.831 293.909 195.307 287.79 202.206 281.078C207.018 276.411 213.443 268.661 221.038 269.313C229.921 270.084 235.088 282.234 240.892 287.657C246.439 292.674 253.253 296.075 260.595 297.491C267.937 298.907 275.526 298.283 282.538 295.688C297.491 290.383 309.394 277.137 315.805 262.883C321.421 249.908 323.06 235.555 320.513 221.647C318.455 209.23 314.754 195.317 307.588 184.204Z" fill="#F1F1F1"/>
</svg>
