<svg width="27" height="30" viewBox="0 0 27 30" fill="none" xmlns="http://www.w3.org/2000/svg">
<path d="M9.25613 22.2468C9.72235 22.8525 6.6634 25.0135 6.83782 25.7057C6.90413 25.8927 7.00202 26.0675 7.12739 26.2227C7.68641 27.0661 7.61038 28.1887 7.0603 29.0156C6.4152 29.985 5.36312 30.2128 4.27974 29.8119C2.87772 29.2949 1.3516 28.18 0.504126 26.9719C0.0770352 26.3651 -0.13092 25.6422 0.0882154 24.9171C0.535431 23.4265 2.22032 22.2885 3.16059 21.0639C3.4155 20.7354 3.66259 20.3893 3.99576 20.1352C4.91591 19.432 5.76673 20.0333 6.5147 20.6499C7.35882 21.3476 8.58755 21.386 9.25613 22.2468Z" fill="#313338"/>
<path d="M20.2518 19.4875C20.9673 19.1961 22.3447 22.6342 23.0726 22.6408C23.2742 22.6244 23.4715 22.5747 23.6562 22.494C24.6267 22.1764 25.7201 22.5236 26.401 23.2509C27.1993 24.1041 27.1635 25.1588 26.4983 26.0876C25.6396 27.2924 24.1582 28.4611 22.7528 28.966C22.0473 29.2201 21.2804 29.2388 20.6185 28.851C19.2556 28.0526 18.5434 26.1742 17.5707 24.9792C17.3069 24.6506 17.0285 24.3352 16.8585 23.9562C16.3923 22.908 17.1939 22.2498 17.9933 21.6934C18.8945 21.0647 19.2299 19.9092 20.2518 19.4875Z" fill="#313338"/>
<path d="M3.24219 17.3986C3.24219 22.4774 7.66068 25.6954 13.1122 25.6954C18.5638 25.6954 22.9823 22.4774 22.9823 17.3986C22.9823 12.3198 18.5593 8.50171 13.1111 8.50171C7.66291 8.50171 3.24219 12.3198 3.24219 17.3986Z" fill="#313338"/>
<path d="M12.8335 1.03195C12.8335 1.03195 14.6604 0.896134 15.6197 0.0549627C15.6453 0.0308405 15.677 0.0138012 15.7115 0.00557698C15.7461 -0.00264722 15.7822 -0.00176169 15.8163 0.00814236C15.8504 0.0180464 15.8812 0.0366154 15.9055 0.0619619C15.9299 0.0873084 15.947 0.118527 15.9551 0.152442C16.057 0.591385 16.0782 1.04463 16.0177 1.49087C15.8857 2.44924 13.6553 2.48209 13.6553 2.48209L12.8335 1.03195Z" fill="#313338"/>
<path d="M6.20179 7.26517C6.38626 5.08995 7.25162 3.13707 9.22944 2.00785C10.8405 1.09 12.8217 0.824947 14.643 1.17215C15.5152 1.33289 16.3493 1.65119 17.1027 2.1108C17.4353 2.31665 17.7485 2.55125 18.0385 2.81178C18.6106 3.32718 19.0701 3.95092 19.3891 4.64527C19.7446 5.41196 19.8564 6.21151 19.9481 7.05488C20.0597 8.19198 20.1059 9.33433 20.0867 10.4765C20.0778 11.5313 20.1337 12.6014 20.0521 13.6528C20.0319 13.908 20.0688 13.8872 19.8788 13.9584C19.6887 14.0296 19.3555 13.9584 19.1632 13.9584H17.1944C16.897 13.9584 16.3838 13.8565 16.1009 13.9584C14.1682 14.636 12.0554 14.636 10.1228 13.9584C8.81017 13.9584 7.49647 13.9584 6.1839 13.9584C6.16824 13.2629 6.20514 12.563 6.25545 11.8697C6.36725 10.3451 6.07321 8.82046 6.20067 7.28598L6.20179 7.26517Z" fill="#313338"/>
</svg>
