<svg width="365" height="380" viewBox="0 0 365 380" fill="none" xmlns="http://www.w3.org/2000/svg">
<g clip-path="url(#clip0_944_9002)">
<path d="M291.23 139.312C289.534 138.739 287.982 137.805 286.68 136.574C285.379 135.343 284.359 133.844 283.69 132.181C282.971 130.417 276.684 114.664 274.65 104.962C273.973 101.737 274.602 98.3734 276.4 95.6126C278.197 92.8519 281.016 90.9196 284.236 90.2409C287.456 89.5621 290.813 90.1926 293.568 91.9935C296.324 93.7944 298.253 96.6182 298.931 99.8438C300.27 106.254 304.994 118.652 306.693 122.888C307.582 125.092 307.821 127.505 307.381 129.84C306.942 132.176 305.844 134.336 304.216 136.065C302.588 137.794 300.499 139.019 298.198 139.594C295.896 140.17 293.478 140.072 291.23 139.312Z" fill="#313338"/>
<path d="M363.315 128.59C362.111 126.303 360.291 124.399 358.062 123.095C355.833 121.79 353.284 121.138 350.703 121.211C352.743 118.714 353.847 115.582 353.826 112.355C353.804 109.129 352.658 106.012 350.586 103.542C348.513 101.072 345.645 99.4057 342.476 98.8302C339.307 98.2547 336.037 98.8065 333.231 100.39C334.068 97.2791 333.795 93.9729 332.459 91.0418C331.123 88.1106 328.808 85.7383 325.914 84.334C323.019 82.9296 319.726 82.5812 316.602 83.3488C313.478 84.1163 310.72 85.9519 308.802 88.5387C307.996 89.632 307.165 90.837 306.322 92.129C306.322 92.129 299.837 100.589 289.185 113.248C263.64 140.765 248.573 137.597 248.573 137.597L278.012 191.488C312.212 173.86 357.524 147.25 357.524 147.25C360.755 145.538 363.178 142.614 364.263 139.117C365.348 135.621 365.007 131.836 363.315 128.59Z" fill="#313338"/>
<path d="M74.2465 139.311C75.9425 138.738 77.4945 137.804 78.7959 136.573C80.0974 135.342 81.1174 133.844 81.786 132.181C82.4928 130.417 88.7799 114.664 90.8136 104.962C91.1674 103.359 91.2004 101.701 90.9108 100.085C90.6212 98.4687 90.0147 96.9262 89.1263 95.5463C88.2379 94.1665 87.0853 92.9768 85.7351 92.046C84.3849 91.1152 82.8639 90.4618 81.2601 90.1235C79.6563 89.7853 78.0014 89.7689 76.3912 90.0753C74.7811 90.3817 73.2475 91.0049 71.8792 91.9088C70.5109 92.8127 69.335 93.9793 68.4196 95.3413C67.5041 96.7032 66.8673 98.2335 66.5458 99.8435C65.1942 106.254 60.482 118.652 58.7831 122.888C57.8947 125.092 57.6558 127.505 58.095 129.84C58.5341 132.176 59.6327 134.336 61.2605 136.065C62.8884 137.794 64.977 139.019 67.2788 139.594C69.5805 140.17 71.9987 140.071 74.2465 139.311Z" fill="#313338"/>
<path d="M76.2923 113.298C65.6526 100.589 59.1796 92.1044 59.1796 92.1044C58.3363 90.8621 57.5055 89.6198 56.6995 88.5142C54.7819 85.9273 52.0235 84.0918 48.8997 83.3242C45.776 82.5566 42.4828 82.9051 39.588 84.3094C36.6933 85.7138 34.3784 88.0861 33.0426 91.0172C31.7067 93.9483 31.4337 97.2545 32.2705 100.366C29.4644 98.7748 26.1913 98.2173 23.018 98.7898C19.8448 99.3623 16.9714 101.029 14.8957 103.501C12.82 105.972 11.6727 109.094 11.6526 112.324C11.6326 115.554 12.741 118.689 14.7858 121.187C11.6639 121.096 8.60325 122.067 6.10325 123.943C3.60325 125.818 1.81145 128.487 1.02014 131.514C0.228828 134.541 0.484719 137.747 1.74608 140.609C3.00745 143.472 5.19983 145.821 7.96555 147.275C7.96555 147.275 53.2893 173.885 87.4899 191.513L116.941 137.622C116.941 137.622 101.837 140.815 76.2923 113.298Z" fill="#313338"/>
<path d="M105.694 223.328C97.6962 220.185 83.2496 259.504 75.1769 259.753C72.9426 259.599 70.7481 259.083 68.679 258.224C57.8286 254.845 45.8001 259.044 38.4218 267.455C29.7415 277.306 30.4235 289.257 38.025 299.643C47.8338 313.072 64.5497 326.004 80.2487 331.396C88.1354 334.117 96.6421 334.141 103.896 329.582C118.777 320.215 126.217 298.748 136.758 284.971C139.597 281.244 142.611 277.517 144.396 273.194C149.357 261.194 140.23 253.926 131.277 247.802C121.183 240.894 117.078 227.863 105.694 223.328Z" fill="#313338"/>
<path d="M258.518 216.868C266.442 213.564 281.732 252.56 289.804 252.634C292.037 252.634 294.145 251.678 296.278 250.97C307.041 247.367 319.169 251.305 326.721 259.554C335.562 269.219 335.165 281.182 327.8 291.729C318.264 305.395 301.833 318.65 286.258 324.377C278.421 327.259 269.926 327.47 262.573 323.073C247.457 314.016 239.558 292.711 228.769 279.157C225.855 275.43 222.755 271.853 220.883 267.542C215.699 255.665 224.603 248.199 233.469 241.888C243.439 234.758 247.234 221.639 258.518 216.868Z" fill="#313338"/>
<path d="M66.8803 364.441C70.0673 358.006 98.5264 352.465 183.619 352.788C244.741 353.024 301.82 361.857 298.633 368.304C295.446 374.752 231.484 379.808 170.214 379.808C108.943 379.808 63.681 370.888 66.8803 364.441Z" fill="#FAFAFA"/>
<path d="M258.518 125.05C258.58 120.193 258.035 115.894 258.308 111.025C258.58 106.155 259.647 100.937 259.721 96.1169C259.796 92.0049 259.721 87.8929 259.386 83.7809C259.386 83.7063 258.965 72.8362 258.965 72.7741C257.898 59.9039 255.307 56.5124 249.454 45.9901C244.084 36.3375 236.297 30.0887 225.793 23.9766C223.702 22.7591 221.557 21.6411 219.358 20.6224C208.806 15.8194 197.4 13.1876 185.814 12.8828C185.814 12.8828 165.539 11.3424 154.912 1.80151C154.628 1.52791 154.276 1.33465 153.893 1.24136C153.51 1.14808 153.109 1.15811 152.731 1.27044C152.353 1.38278 152.012 1.59341 151.741 1.8809C151.471 2.16839 151.282 2.52248 151.192 2.90716C150.05 7.88404 149.81 13.0263 150.485 18.0881C150.485 18.3862 150.597 18.6595 150.659 18.9453C146.418 20.6472 142.338 23.9145 138.457 26.3991C134.737 28.7346 131.265 30.126 128.04 33.1199C125.594 35.367 123.33 37.8055 121.27 40.4122C118.002 44.5648 115.25 49.0992 113.073 53.916C109.129 62.2733 106.614 71.2348 105.633 80.4267C104.963 86.8618 105.806 94.1665 105.633 100.639C105.459 107.111 106.253 109.472 106.302 115.944C106.302 118.056 105.41 124.305 105.397 126.417C100.864 130.533 96.7138 135.053 92.9966 139.92C88.6317 145.647 85.8416 154.505 82.8282 161.039C77.2852 173.202 73.2799 184.059 73.2799 198.482C73.2799 205.65 76.5164 215.204 77.9672 221.689C80.6085 233.577 83.0886 241.565 89.9089 250.858C95.6999 258.771 102.706 263.529 110.928 269.343C114.325 271.753 118.058 276.126 121.803 278.139C136.882 286.238 147.236 289.431 166.346 290.562C169.322 290.748 179.713 292.549 182.751 292.549C192.052 292.605 201.335 291.744 210.466 289.978C215.997 288.872 217.411 287.928 222.557 286.176C227.145 284.611 235.515 282.3 239.744 280.251C243.973 278.201 248.821 272.797 252.653 270.312C261.978 264.163 269.22 259.703 275.631 250.957C284.101 239.379 287.114 233.155 288.974 217.664C289.433 213.937 292.26 202.545 292.26 198.582C292.287 184.609 289.283 170.796 283.457 158.1C277.632 145.404 269.122 134.127 258.518 125.05Z" fill="white"/>
<path d="M182.738 293.904C180.903 293.904 176.823 293.32 172.88 292.761C170.102 292.363 167.486 291.991 166.258 291.916C147.583 290.773 137.055 287.829 121.207 279.307C118.752 277.813 116.48 276.037 114.437 274.014C113.094 272.74 111.678 271.545 110.196 270.437L109.08 269.642C101.28 264.138 94.5461 259.38 88.8915 251.666C82.1457 242.46 79.5168 234.46 76.739 222.037C76.3546 220.285 75.8214 218.31 75.2634 216.185C73.7505 210.434 72.0269 203.924 72.0269 198.557C72.0269 184.532 75.5734 174.022 81.6992 160.592C82.5425 158.741 83.3609 156.729 84.1793 154.592C86.4114 149.101 88.7303 143.411 91.9544 139.188C95.6082 134.401 99.6791 129.948 104.119 125.883C104.119 124.752 104.355 123.05 104.541 121.286C104.777 119.174 105.012 117 105 115.981C105 113.137 104.801 111.112 104.628 109.136C104.327 106.311 104.227 103.467 104.33 100.627C104.417 97.993 104.33 95.2599 104.243 92.3778C104.027 88.3582 104.073 84.3287 104.38 80.315C105.381 70.9944 107.934 61.9076 111.932 53.4317C114.145 48.5184 116.952 43.8957 120.29 39.667C122.389 37.001 124.699 34.5083 127.197 32.2132C129.369 30.3286 131.759 28.7105 134.314 27.3931C135.443 26.7595 136.621 26.1508 137.787 25.3557C138.952 24.5606 140.006 23.8898 141.135 23.1196C143.692 21.259 146.4 19.6175 149.232 18.2125C148.558 13.0253 148.805 7.75948 149.964 2.65888C150.098 2.07883 150.381 1.54413 150.786 1.10815C151.191 0.672171 151.703 0.350171 152.27 0.174282C152.859 -0.0146474 153.487 -0.0440559 154.09 0.0890558C154.693 0.222168 155.251 0.513048 155.705 0.932086C165.899 10.0754 185.665 11.678 185.863 11.6904H186C197.683 12.0318 209.182 14.6964 219.828 19.5293C222.06 20.5728 224.268 21.7158 226.363 22.9332C238.578 30.0516 245.559 36.5985 250.495 45.4188C251.065 46.4624 251.611 47.4314 252.132 48.3507C256.819 56.6617 259.163 60.8482 260.155 72.6998C260.155 72.7619 260.155 72.7619 260.378 78.638C260.477 81.1847 260.564 83.6071 260.576 83.7562C260.874 87.4831 260.985 91.5703 260.911 96.1792C260.816 98.9987 260.563 101.811 260.155 104.602C259.882 106.776 259.609 109.025 259.485 111.099C259.336 113.807 259.485 116.292 259.559 118.938C259.634 120.727 259.721 122.566 259.708 124.491C270.32 133.676 278.824 145.049 284.64 157.833C290.455 170.617 293.443 184.509 293.4 198.557C293.4 201.116 292.321 206.384 291.367 210.98C290.809 213.738 290.275 216.347 290.127 217.738C288.242 233.441 285.08 239.963 276.548 251.616C270.435 259.977 263.639 264.449 255.046 270.101L253.26 271.281C251.525 272.528 249.869 273.881 248.3 275.331C245.878 277.646 243.184 279.657 240.277 281.319C236.204 283.062 232.025 284.543 227.765 285.754C225.966 286.326 224.292 286.847 222.953 287.295C221.428 287.816 220.237 288.264 219.159 288.674C216.425 289.769 213.593 290.601 210.701 291.158C201.492 292.987 192.127 293.906 182.738 293.904ZM153.424 2.48496C153.317 2.46689 153.208 2.46689 153.101 2.48496C152.944 2.5354 152.803 2.62619 152.692 2.74826C152.581 2.87033 152.504 3.01941 152.469 3.18065C151.362 8.01125 151.131 13.0018 151.787 17.9143C151.823 18.1489 151.873 18.3811 151.936 18.61C152.012 18.9017 151.98 19.2113 151.845 19.481C151.711 19.7507 151.483 19.9622 151.204 20.0759C148.174 21.4552 145.298 23.1499 142.623 25.1321C141.47 25.9272 140.329 26.7098 139.2 27.4179C138.072 28.126 136.782 28.8714 135.617 29.5298C133.228 30.7566 130.993 32.262 128.957 34.0145C126.557 36.2125 124.339 38.6014 122.323 41.1578C119.111 45.2307 116.408 49.6823 114.275 54.4131C110.393 62.6383 107.912 71.4561 106.934 80.5014C106.637 84.4036 106.596 88.3211 106.81 92.2287C106.897 95.0239 106.984 97.9184 106.897 100.639C106.804 103.38 106.9 106.123 107.182 108.851C107.356 110.863 107.542 112.95 107.567 115.882C107.567 117.05 107.343 119.199 107.095 121.472C106.885 123.41 106.674 125.423 106.661 126.442C106.661 126.615 106.624 126.786 106.554 126.945C106.483 127.103 106.381 127.245 106.252 127.361C101.779 131.425 97.6823 135.886 94.0129 140.691C90.9872 144.654 88.7427 150.17 86.5726 155.511C85.6922 157.673 84.8613 159.723 83.9933 161.611C78.0163 174.73 74.5565 184.979 74.5565 198.545C74.5565 203.588 76.2306 209.937 77.7187 215.539C78.2767 217.676 78.8099 219.689 79.2067 221.49C81.9596 233.839 84.4273 241.28 90.9376 250.175C96.3566 257.629 102.941 262.225 110.555 267.567L111.671 268.35C113.232 269.507 114.726 270.752 116.148 272.077C118.048 273.967 120.158 275.634 122.435 277.046C137.911 285.369 148.203 288.226 166.457 289.357C167.783 289.444 170.45 289.817 173.277 290.227C176.997 290.748 181.126 291.345 182.788 291.345C192 291.361 201.192 290.471 210.23 288.686C212.992 288.16 215.696 287.366 218.303 286.313C219.394 285.903 220.609 285.456 222.16 284.922C223.71 284.388 225.222 283.928 227.033 283.357C231.177 282.177 235.243 280.741 239.21 279.058C241.902 277.482 244.4 275.593 246.65 273.431C248.316 271.905 250.077 270.486 251.921 269.182L253.719 267.94C262.101 262.424 268.736 258.063 274.589 250.051C282.971 238.621 285.873 232.658 287.708 217.353C287.882 215.862 288.403 213.328 288.949 210.396C289.882 206.454 290.545 202.453 290.933 198.421C290.971 184.63 288.016 170.996 282.271 158.464C276.526 145.933 268.129 134.802 257.662 125.845C257.528 125.728 257.421 125.582 257.349 125.419C257.276 125.256 257.239 125.08 257.24 124.901C257.24 122.839 257.178 120.839 257.092 118.901C256.934 116.212 256.913 113.517 257.03 110.826C257.141 108.664 257.439 106.379 257.712 104.155C258.103 101.454 258.347 98.7331 258.443 96.0053C258.518 91.4833 258.443 87.4831 258.109 83.7935C258.109 83.7935 258.109 83.7935 257.91 78.6131C257.811 75.8304 257.699 72.9109 257.687 72.7495C256.757 61.4694 254.624 57.7052 249.986 49.4439L248.337 46.5121C243.637 38.0644 236.916 31.8281 225.123 24.9582C223.09 23.778 220.969 22.6723 218.799 21.6661C208.395 16.9454 197.156 14.3522 185.739 14.0384C185.657 14.0514 185.573 14.0514 185.491 14.0384C183.185 13.8396 164.41 11.9637 154.056 2.6713C153.871 2.54304 153.649 2.47774 153.424 2.48496Z" fill="#313338"/>
<path d="M176.017 69.7428C174.889 72.0038 171.491 73.9542 168.937 72.0162C166.692 70.3019 165.452 67.4321 166.581 65.1712C167.267 63.9718 168.351 63.0508 169.644 62.5676C170.937 62.0843 172.358 62.0693 173.661 62.5251C176.451 63.5313 177.146 67.4943 176.017 69.7428Z" fill="#313338"/>
<path d="M188.889 65.084C189.943 62.7857 191.977 61.1956 195.647 62.5994C198.301 63.5684 199.541 67.5686 198.499 69.8917C197.458 72.2148 193.936 73.0844 191.245 72.1899C188.554 71.2955 187.847 67.3698 188.889 65.084Z" fill="#313338"/>
<path d="M169.234 106.229C167.559 106.047 165.919 105.629 164.361 104.987C161.344 103.385 158.409 101.631 155.569 99.7317C153.349 97.7813 152.407 95.7315 150.906 93.1724C149.99 91.599 149.242 89.9334 148.674 88.2032C147.828 85.6733 147.409 83.0198 147.434 80.3518C147.43 79.9361 147.459 79.5206 147.521 79.1095C147.637 78.3436 147.937 77.6175 148.396 76.9939C148.855 76.3703 149.458 75.868 150.154 75.5304C150.85 75.1929 151.617 75.0301 152.39 75.0563C153.163 75.0825 153.918 75.2969 154.589 75.6808C155.711 76.3336 156.87 76.9185 158.061 77.4325C159.376 78.0163 160.864 78.8735 162.216 79.3207C164.503 79.9308 166.821 80.4201 169.16 80.7867C170.407 81.1628 171.685 81.4289 172.979 81.5817C173.761 81.5817 174.79 81.2836 175.583 81.296" fill="white"/>
<path d="M169.235 107.472H169.012L167.771 107.273C166.418 107.11 165.094 106.754 163.84 106.217C162.256 105.437 160.716 104.57 159.228 103.621C158.868 103.385 158.421 103.124 157.987 102.85C156.862 102.245 155.792 101.542 154.788 100.751C153.048 99.1523 151.618 97.2441 150.572 95.1232L149.865 93.8809C148.908 92.2436 148.123 90.5118 147.521 88.713C146.635 86.0458 146.195 83.2502 146.219 80.4392C146.222 79.9779 146.256 79.5173 146.319 79.0603C146.478 78.0845 146.872 77.1621 147.466 76.3724C148.06 75.5826 148.837 74.949 149.729 74.5259C150.597 74.1144 151.553 73.9219 152.512 73.9652C153.472 74.0085 154.407 74.2863 155.235 74.7744C156.318 75.3992 157.436 75.9633 158.583 76.4639C159.079 76.6751 159.587 76.936 160.108 77.1844C160.91 77.6091 161.739 77.9825 162.588 78.3025C164.034 78.7351 165.51 79.0631 167.003 79.2839C167.796 79.4205 168.59 79.5572 169.408 79.7311L170.648 80.0541C171.411 80.2901 172.197 80.4401 172.992 80.5014C173.346 80.4829 173.698 80.4414 174.046 80.3771C174.545 80.2804 175.051 80.2264 175.559 80.2156C175.888 80.2156 176.203 80.3465 176.436 80.5795C176.668 80.8125 176.799 81.1284 176.799 81.4579C176.799 81.7874 176.668 82.1034 176.436 82.3364C176.203 82.5693 175.888 82.7002 175.559 82.7002C175.299 82.7002 174.889 82.7623 174.505 82.8245C173.987 82.9342 173.459 82.9884 172.93 82.986C171.954 82.9177 170.989 82.7385 170.053 82.4518L168.912 82.166C168.119 82.0045 167.35 81.8679 166.593 81.7312C164.987 81.4905 163.399 81.1334 161.844 80.6629C160.865 80.3165 159.912 79.9014 158.992 79.4206C158.508 79.1721 158.025 78.9361 157.566 78.7373C156.334 78.2003 155.134 77.5947 153.97 76.9235C153.487 76.6381 152.942 76.4753 152.382 76.4493C151.823 76.4233 151.265 76.535 150.758 76.7745C150.227 77.0284 149.766 77.4074 149.414 77.8791C149.062 78.3509 148.83 78.9011 148.737 79.4827C148.695 79.8123 148.674 80.1443 148.675 80.4765C148.654 83.0093 149.052 85.528 149.853 87.9303C150.398 89.564 151.108 91.1375 151.973 92.6262L152.705 93.8685C153.627 95.7411 154.889 97.4261 156.425 98.8377C157.317 99.512 158.258 100.118 159.24 100.651C159.748 100.95 160.232 101.223 160.604 101.471C161.984 102.361 163.417 103.166 164.895 103.881C165.948 104.341 167.064 104.638 168.205 104.763L169.446 104.975C169.606 105.005 169.759 105.066 169.896 105.155C170.033 105.244 170.151 105.36 170.243 105.495C170.335 105.63 170.4 105.782 170.433 105.942C170.467 106.102 170.468 106.267 170.438 106.428C170.391 106.716 170.245 106.978 170.025 107.169C169.805 107.359 169.526 107.467 169.235 107.472Z" fill="#313338"/>
<path d="M145.053 77.4945C145.5 80.0909 147.112 82.2525 151.254 81.8798C154.18 81.6189 156.549 77.8796 156.102 75.2832C155.656 72.6868 152.382 70.8109 149.406 70.9848C146.43 71.1587 144.619 74.8981 145.053 77.4945Z" fill="#313338"/>
<path d="M258.195 154.442C256.172 151.224 253.719 148.299 250.904 145.746C242.434 138.218 228.657 138.442 224.615 150.492C222.594 156.517 223.598 163.052 221.701 169.126C221.068 171.139 219.432 173.089 217.323 173.114C216.448 173.088 215.593 172.835 214.843 172.381C210.131 169.797 207.862 164.927 204.663 160.915C201.74 157.319 197.991 154.485 193.736 152.657C189.482 150.829 184.849 150.06 180.234 150.417C169.073 151.312 164.026 159.399 157.07 166.915C155.569 168.543 153.424 169.859 151.241 169.512C145.326 168.605 145.041 160.082 143.342 155.846C138.766 144.777 124.146 139.448 113.792 145.635C112.29 146.543 110.914 147.646 109.7 148.914C94.6579 164.679 91.7314 189.562 97.1876 209.961C103.388 233.117 123.96 254.684 149.89 248.36C157.888 246.422 164.15 241.292 169.929 235.664C173.959 231.751 179.341 225.253 185.702 225.8C193.143 226.446 197.47 236.633 202.331 241.18C206.977 245.386 212.685 248.238 218.834 249.425C224.984 250.612 231.34 250.089 237.214 247.913C249.738 243.466 259.708 232.359 265.078 220.409C269.782 209.53 271.154 197.497 269.021 185.835C267.297 175.425 264.197 163.76 258.195 154.442Z" fill="#F1F1F1"/>
</g>
<defs>
<clipPath id="clip0_944_9002">
<rect width="364.351" height="379.808" fill="white" transform="translate(0.562988)"/>
</clipPath>
</defs>
</svg>
