<svg width="866" height="238" viewBox="0 0 866 238" fill="none" xmlns="http://www.w3.org/2000/svg">
<g clip-path="url(#clip0_1500_12214)">
<path d="M203.297 125.174C198.751 107.995 194.023 90.8761 189.234 73.7573C187.118 65.1933 184.528 56.7513 181.476 48.4695C179.959 44.6349 177.312 41.3424 173.879 39.0215C170.446 36.7005 166.386 35.459 162.23 35.459C158.074 35.459 154.015 36.7005 150.581 39.0215C147.148 41.3424 144.501 44.6349 142.985 48.4695C140.158 56.7696 137.77 65.2104 135.832 73.7573L122.436 125.294C122.179 126.115 121.664 126.833 120.966 127.343C120.268 127.852 119.424 128.128 118.557 128.128C117.689 128.128 116.845 127.852 116.147 127.343C115.449 126.833 114.934 126.115 114.677 125.294C110.616 112.079 102.554 85.4702 98.7959 72.2556C96.6137 65.4081 94.3709 53.2748 90.1278 47.6285C87.7036 44.5889 84.6189 42.13 81.1032 40.4349C77.5875 38.7397 73.7313 37.852 69.8216 37.8378C64.0097 38.5376 58.6383 41.2628 54.6677 45.5262C52.0495 48.079 50.1219 51.2438 49.0626 54.7288C48.0033 58.2139 47.8463 61.9072 48.6061 65.4682L49.7579 70.2133C58.244 105.052 66.912 140.431 76.4893 174.968C79.8837 186.621 87.2183 198.394 99.5839 201.998C105.421 203.912 111.674 204.207 117.668 202.852C123.662 201.497 129.168 198.543 133.589 194.31C142.136 186.862 144.682 171.244 147.834 161.033L158.138 124.994C158.348 124.196 158.819 123.49 159.477 122.985C160.135 122.481 160.944 122.208 161.775 122.208C162.607 122.208 163.416 122.481 164.074 122.985C164.732 123.49 165.203 124.196 165.412 124.994C169.595 137.007 173.838 149.02 177.899 161.333C178.808 164.096 181.536 172.266 182.506 174.968C183.865 181.352 187.285 187.124 192.249 191.41C197.213 195.697 203.45 198.265 210.017 198.726C216.585 199.188 223.125 197.517 228.65 193.968C234.174 190.418 238.382 185.183 240.636 179.053C248.456 154.186 264.883 93.1586 272.096 68.6517C273.014 66.0681 273.624 63.3869 273.914 60.6629C273.647 55.244 271.536 50.0743 267.926 45.9954C264.316 41.9164 259.419 39.1682 254.032 38.1981C247.843 37.8472 241.736 39.7466 236.859 43.5398C231.982 47.333 228.67 52.7595 227.543 58.8008C224.876 67.0899 209.904 115.443 206.995 124.873C206.906 125.276 206.69 125.639 206.377 125.91C206.064 126.181 205.672 126.346 205.258 126.379C204.844 126.413 204.43 126.314 204.077 126.097C203.724 125.88 203.451 125.556 203.297 125.174Z" fill="white"/>
<path d="M356.715 87.6296C354.169 85.9478 352.29 82.9444 349.259 81.0823C345.968 79.0758 342.33 77.691 338.53 76.9979C327.252 75.2665 315.711 77.1611 305.598 82.4038C295.486 87.6465 287.335 95.9616 282.339 106.13C277.991 114.813 275.435 124.269 274.821 133.944C274.207 143.618 275.547 153.317 278.763 162.472C282.43 173.993 289.841 183.989 299.841 190.899C309.84 197.809 321.867 201.246 334.045 200.674C338.653 200.556 343.198 199.578 347.441 197.791C349.619 196.846 351.658 195.614 353.502 194.127C355.442 192.505 357.26 190.042 360.049 189.922C366.535 189.562 370.838 195.929 375.445 199.352C386.416 207.942 398.54 197.731 402.783 187.339C404.76 180.349 405.296 173.035 404.359 165.835C404.359 156.946 403.934 147.816 403.389 139.166C402.843 130.517 402.904 121.146 402.419 112.016C402.778 103.086 401.013 94.1975 397.267 86.0678C395.046 82.7928 391.613 80.5156 387.711 79.7288C383.809 78.942 379.751 79.7087 376.415 81.8632C372.242 84.6127 367.793 86.9276 363.14 88.7709C362.053 89.0898 360.907 89.1527 359.791 88.9545C358.675 88.7564 357.622 88.3027 356.715 87.6296ZM357.685 146.374C349.199 173.344 319.133 172.563 320.649 141.509C320.232 135.141 321.529 128.777 324.407 123.069C330.953 112.557 347.138 114.299 354.29 123.069C357.82 127.289 359.616 132.672 359.321 138.145L357.685 146.374Z" fill="white"/>
<path d="M471.824 46.6044C471.945 43.098 471.245 39.6116 469.778 36.4187C468.31 33.2258 466.117 30.4132 463.368 28.2017C460.619 25.9902 457.391 24.4401 453.936 23.6728C450.482 22.9054 446.894 22.9419 443.456 23.7793C438.306 25.0397 433.747 28.01 430.538 32.1957C427.328 36.3814 425.662 41.53 425.817 46.7845C425.817 50.869 426.484 62.4617 426.726 66.7264C428.807 93.3309 428.949 120.05 427.151 146.674C426.545 155.564 425.757 164.694 425.272 173.284C424.382 177.534 424.535 181.935 425.716 186.115C426.897 190.296 429.073 194.135 432.061 197.31C444.608 210.104 468.976 203.317 471.521 185.297C471.945 181.143 471.945 176.957 471.521 172.803C470.673 159.528 470.673 146.194 470.43 132.859C470.43 106.19 470.915 79.5806 471.703 52.9113L471.824 46.6044Z" fill="white"/>
<path d="M543.108 110.635C543.108 92.0145 543.108 73.394 543.108 54.8336C543.626 48.9205 542.797 42.9678 540.684 37.4145C538.554 32.8588 534.918 29.16 530.379 26.9301C525.839 24.7002 520.667 24.0728 515.719 25.1516C510.77 26.2304 506.342 28.9507 503.166 32.8627C499.99 36.7746 498.256 41.6438 498.253 46.6646V51.3497C498.253 76.157 497.707 100.964 496.495 125.771C495.949 138.145 495.343 150.579 494.919 162.952C494.494 175.326 491.949 188.721 501.89 197.731C504.934 200.723 508.724 202.861 512.874 203.929C517.025 204.996 521.386 204.953 525.515 203.805C529.643 202.657 533.39 200.445 536.374 197.394C539.359 194.343 541.473 190.563 542.502 186.438C543.145 183.113 543.268 179.709 542.866 176.347L541.896 155.144C541.807 154.4 541.986 153.649 542.401 153.023C542.815 152.397 543.439 151.936 544.163 151.721C544.887 151.506 545.664 151.55 546.358 151.847C547.052 152.143 547.618 152.673 547.957 153.342C556.444 164.574 564.869 175.807 573.052 187.219L576.083 191.484C577.952 194.031 580.381 196.124 583.186 197.605C585.991 199.086 589.1 199.915 592.276 200.031C595.452 200.146 598.613 199.545 601.52 198.273C604.428 197 607.005 195.089 609.058 192.685C611.963 189.172 613.596 184.795 613.695 180.255C613.794 175.714 612.353 171.271 609.604 167.638L604.512 161.631L584.206 137.605C583.472 136.773 583.068 135.706 583.068 134.601C583.068 133.497 583.472 132.43 584.206 131.598L595.965 119.585C624.091 93.0956 583.478 61.8012 562.263 92.1946C557.11 98.5616 551.473 105.469 546.381 111.836C546.221 112.266 545.894 112.616 545.473 112.807C545.053 112.999 544.573 113.017 544.139 112.857C543.705 112.698 543.352 112.374 543.159 111.958C542.966 111.541 542.947 111.065 543.108 110.635Z" fill="white"/>
<path d="M673.311 46.6067C673.442 43.1032 672.75 39.6173 671.29 36.4237C669.83 33.2302 667.642 30.4161 664.898 28.2033C662.154 25.9904 658.928 24.4393 655.476 23.672C652.024 22.9047 648.439 22.9422 645.004 23.7816C639.853 25.0421 635.294 28.0124 632.085 32.1981C628.876 36.3837 627.21 41.5324 627.364 46.7869C627.364 50.8714 628.031 62.4641 628.274 66.7288C630.324 93.3345 630.466 120.051 628.698 146.677C628.092 155.566 627.304 164.696 626.819 173.286C625.93 177.537 626.082 181.937 627.263 186.118C628.445 190.298 630.62 194.137 633.608 197.312C646.155 210.106 670.523 203.319 673.008 185.299C673.462 181.147 673.462 176.958 673.008 172.805C672.159 159.531 672.159 146.196 671.917 132.862C671.917 106.192 672.341 79.583 673.19 52.9137L673.311 46.6067Z" fill="white"/>
<path d="M734.109 149.68C734.523 149.326 735.004 149.058 735.525 148.893C736.046 148.728 736.595 148.669 737.14 148.719C750.778 149.079 770.599 150.341 784.48 151.001C801.331 151.722 818.304 155.326 818.001 132.381C815.637 103.309 786.966 81.3848 758.537 80.8442C720.652 78.0812 684.707 106.733 688.223 145.836C692.466 198.153 756.415 214.071 799.21 196.171C802.513 195.087 805.553 193.337 808.14 191.032C810.727 188.727 812.805 185.916 814.243 182.776C815.189 180.329 815.497 177.685 815.136 175.088C814.776 172.492 813.76 170.028 812.182 167.925C810.603 165.821 808.515 164.148 806.109 163.058C803.704 161.969 801.059 161.499 798.422 161.693C789.33 162.294 779.57 167.039 769.932 167.7C759.143 168.06 747.444 167.7 738.715 160.552C736.291 157.609 730.108 153.524 734.109 149.68ZM748.293 109.316C751.02 108.967 753.79 109.194 756.422 109.981C759.055 110.767 761.49 112.096 763.568 113.881C767.387 117.485 769.629 125.894 762.962 127.455C756.294 129.017 731.684 132.561 737.079 118.265C738.048 115.966 739.581 113.943 741.539 112.38C743.498 110.817 745.819 109.764 748.293 109.316Z" fill="white"/>
</g>
<defs>
<clipPath id="clip0_1500_12214">
<rect width="770" height="182" fill="white" transform="translate(48 23)"/>
</clipPath>
</defs>
</svg>
