<svg width="120" height="28" viewBox="0 0 120 28" fill="none" xmlns="http://www.w3.org/2000/svg">
<g clip-path="url(#clip0_1500_12249)">
<path d="M24.202 15.7183C23.4935 13.0754 22.7566 10.4417 22.0103 7.80806C21.6806 6.49053 21.2769 5.19175 20.8012 3.91763C20.5649 3.3277 20.1523 2.82116 19.6173 2.46409C19.0822 2.10702 18.4496 1.91602 17.8019 1.91602C17.1542 1.91602 16.5216 2.10702 15.9865 2.46409C15.4515 2.82116 15.0389 3.3277 14.8026 3.91763C14.3621 5.19458 13.99 6.49316 13.6879 7.80806L11.6002 15.7368C11.5602 15.8631 11.48 15.9735 11.3712 16.052C11.2624 16.1304 11.1308 16.1727 10.9956 16.1727C10.8605 16.1727 10.7289 16.1304 10.6201 16.052C10.5113 15.9735 10.431 15.8631 10.391 15.7368C9.75813 13.7038 8.50173 9.61004 7.91605 7.57704C7.57597 6.52358 7.22644 4.6569 6.56518 3.78826C6.18738 3.32061 5.70665 2.94232 5.15875 2.68153C4.61085 2.42075 4.00989 2.28418 3.40058 2.28198C2.49483 2.38964 1.65773 2.8089 1.03893 3.46482C0.630908 3.85755 0.330498 4.34445 0.165409 4.88061C0.000319218 5.41677 -0.0241382 5.98497 0.094274 6.53281L0.273761 7.26284C1.59628 12.6226 2.94713 18.0655 4.43969 23.379C4.9687 25.1718 6.11175 26.983 8.03886 27.5374C8.94847 27.8319 9.92309 27.8773 10.8572 27.6688C11.7913 27.4603 12.6493 27.0058 13.3384 26.3546C14.6704 25.2087 15.0671 22.8061 15.5583 21.2351L17.1642 15.6906C17.1969 15.5678 17.2703 15.4592 17.3729 15.3816C17.4754 15.3041 17.6014 15.262 17.731 15.262C17.8607 15.262 17.9867 15.3041 18.0892 15.3816C18.1918 15.4592 18.2652 15.5678 18.2978 15.6906C18.9497 17.5388 19.6109 19.3869 20.2438 21.2813C20.3855 21.7064 20.8106 22.9632 20.9618 23.379C21.1736 24.3611 21.7066 25.2491 22.4802 25.9085C23.2537 26.568 24.2257 26.9631 25.2493 27.0341C26.2728 27.1051 27.2921 26.8481 28.153 26.302C29.0139 25.7559 29.6697 24.9505 30.021 24.0074C31.2397 20.1817 33.7997 10.7929 34.9238 7.02258C35.0669 6.6251 35.1621 6.21262 35.2072 5.79353C35.1655 4.95986 34.8366 4.16453 34.274 3.537C33.7114 2.90947 32.9482 2.48667 32.1087 2.33742C31.1441 2.28343 30.1925 2.57564 29.4324 3.15922C28.6724 3.74279 28.1562 4.57763 27.9806 5.50707C27.5649 6.78232 25.2316 14.2213 24.7782 15.6721C24.7644 15.734 24.7307 15.7899 24.6819 15.8316C24.6332 15.8733 24.5721 15.8986 24.5076 15.9038C24.443 15.9089 24.3785 15.8937 24.3235 15.8603C24.2685 15.8269 24.2259 15.7771 24.202 15.7183Z" fill="#313338"/>
<path d="M48.1115 9.94253C47.7147 9.68379 47.4219 9.22173 46.9495 8.93526C46.4367 8.62657 45.8697 8.41352 45.2775 8.30689C43.5199 8.04052 41.7212 8.33199 40.1453 9.13856C38.5694 9.94513 37.299 11.2244 36.5205 12.7887C35.8428 14.1246 35.4445 15.5794 35.3488 17.0678C35.2531 18.5562 35.4619 20.0483 35.9632 21.4567C36.5346 23.2293 37.6895 24.767 39.248 25.8301C40.8064 26.8933 42.6806 27.422 44.5785 27.3339C45.2967 27.3158 46.0049 27.1653 46.6662 26.8904C47.0056 26.7451 47.3234 26.5555 47.6108 26.3267C47.9131 26.0772 48.1965 25.6983 48.631 25.6798C49.6418 25.6244 50.3125 26.6039 51.0305 27.1306C52.7403 28.4521 54.6296 26.8811 55.2909 25.2825C55.599 24.207 55.6825 23.0819 55.5365 21.9742C55.5365 20.6066 55.4704 19.2019 55.3853 17.8712C55.3003 16.5406 55.3098 15.099 55.2342 13.6943C55.2902 12.3205 55.0151 10.953 54.4312 9.70226C54.0851 9.1984 53.5501 8.84808 52.942 8.72703C52.3339 8.60598 51.7015 8.72394 51.1816 9.0554C50.5313 9.4784 49.838 9.83454 49.1128 10.1181C48.9435 10.1672 48.7647 10.1769 48.5909 10.1464C48.417 10.1159 48.2529 10.0461 48.1115 9.94253ZM48.2626 18.9802C46.9401 23.1293 42.2546 23.0092 42.4908 18.2316C42.4258 17.2519 42.6279 16.2729 43.0764 15.3947C44.0967 13.7775 46.6189 14.0455 47.7336 15.3947C48.2837 16.0439 48.5636 16.8721 48.5177 17.7141L48.2626 18.9802Z" fill="#313338"/>
<path d="M66.0509 3.63106C66.0698 3.09163 65.9606 2.55526 65.7319 2.06404C65.5033 1.57283 65.1614 1.14011 64.733 0.799888C64.3047 0.459662 63.8016 0.221174 63.2632 0.103125C62.7248 -0.0149247 62.1657 -0.00931768 61.6299 0.119509C60.8273 0.313431 60.1168 0.770396 59.6166 1.41435C59.1165 2.0583 58.8568 2.85039 58.881 3.65879C58.881 4.28717 58.9849 6.07066 59.0227 6.72677C59.347 10.8198 59.3691 14.9303 59.0888 19.0264C58.9943 20.3941 58.8715 21.7987 58.7959 23.1202C58.6573 23.7742 58.6811 24.4511 58.8652 25.0943C59.0493 25.7374 59.3883 26.328 59.8539 26.8165C61.8094 28.7849 65.6069 27.7406 66.0037 24.9684C66.0697 24.3293 66.0697 23.6853 66.0037 23.0462C65.8714 21.004 65.8714 18.9525 65.8336 16.901C65.8336 12.7981 65.9092 8.70433 66.032 4.60136L66.0509 3.63106Z" fill="#313338"/>
<path d="M77.1596 13.4824C77.1596 10.6178 77.1596 7.75307 77.1596 4.89762C77.2403 3.98793 77.1111 3.07212 76.7817 2.21776C76.4498 1.51689 75.8832 0.947848 75.1757 0.604787C74.4683 0.261727 73.6623 0.1652 72.8911 0.331166C72.1199 0.497133 71.4297 0.915647 70.9348 1.51749C70.4398 2.11933 70.1697 2.86842 70.1691 3.64086V4.36165C70.1691 8.17815 70.0841 11.9946 69.8951 15.8112C69.8101 17.7148 69.7157 19.6277 69.6495 21.5313C69.5834 23.4349 69.1867 25.4956 70.7359 26.8818C71.2103 27.3421 71.801 27.6711 72.4478 27.8353C73.0946 27.9995 73.7744 27.993 74.4177 27.8164C75.0611 27.6398 75.6451 27.2994 76.1102 26.8301C76.5752 26.3607 76.9047 25.7791 77.0651 25.1445C77.1654 24.6329 77.1845 24.1093 77.1218 23.592L76.9706 20.33C76.9568 20.2155 76.9847 20.1 77.0493 20.0037C77.1139 19.9074 77.2112 19.8365 77.324 19.8034C77.4368 19.7703 77.5579 19.7771 77.6661 19.8227C77.7742 19.8683 77.8625 19.9498 77.9153 20.0527C79.2378 21.7808 80.5509 23.5089 81.8262 25.2646L82.2985 25.9207C82.5898 26.3126 82.9683 26.6346 83.4055 26.8624C83.8427 27.0902 84.3271 27.2179 84.822 27.2357C85.317 27.2535 85.8097 27.161 86.2628 26.9652C86.7159 26.7694 87.1176 26.4755 87.4375 26.1055C87.8902 25.5651 88.1447 24.8917 88.1601 24.1932C88.1755 23.4946 87.951 22.8111 87.5225 22.2521L86.729 21.328L83.5644 17.6316C83.4501 17.5036 83.3871 17.3395 83.3871 17.1696C83.3871 16.9996 83.4501 16.8355 83.5644 16.7075L85.397 14.8593C89.7802 10.7841 83.451 5.96957 80.1447 10.6455C79.3417 11.625 78.4632 12.6877 77.6697 13.6673C77.6446 13.7334 77.5937 13.7872 77.5282 13.8166C77.4626 13.8461 77.3878 13.8489 77.3202 13.8244C77.2525 13.7998 77.1976 13.7501 77.1675 13.6859C77.1374 13.6218 77.1345 13.5486 77.1596 13.4824Z" fill="#313338"/>
<path d="M97.4516 3.63143C97.472 3.09242 97.3642 2.55613 97.1367 2.06482C96.9092 1.5735 96.5681 1.14056 96.1405 0.800126C95.7128 0.459693 95.2101 0.221055 94.6721 0.10301C94.1341 -0.0150361 93.5754 -0.00926083 93.0401 0.119874C92.2374 0.313796 91.5269 0.770761 91.0268 1.41471C90.5266 2.05866 90.267 2.85076 90.2911 3.65915C90.2911 4.28753 90.395 6.07102 90.4328 6.72713C90.7524 10.8203 90.7745 14.9306 90.4989 19.0268C90.4045 20.3945 90.2817 21.7991 90.2061 23.1205C90.0675 23.7745 90.0912 24.4515 90.2753 25.0946C90.4594 25.7378 90.7985 26.3284 91.2641 26.8169C93.2195 28.7852 97.0171 27.741 97.4044 24.9687C97.4751 24.3299 97.4751 23.6854 97.4044 23.0466C97.2721 21.0044 97.2721 18.9529 97.2343 16.9014C97.2343 12.7984 97.3005 8.7047 97.4327 4.60173L97.4516 3.63143Z" fill="#313338"/>
<path d="M106.926 19.4885C106.991 19.4341 107.066 19.3929 107.147 19.3675C107.228 19.3421 107.314 19.333 107.399 19.3407C109.524 19.3961 112.613 19.5902 114.777 19.6918C117.403 19.8027 120.048 20.3572 120.001 16.8272C119.632 12.3545 115.164 8.98161 110.733 8.89844C104.829 8.47336 99.2275 12.8813 99.7754 18.8971C100.437 26.946 110.403 29.3948 117.072 26.641C117.587 26.4742 118.061 26.205 118.464 25.8504C118.867 25.4957 119.191 25.0633 119.415 24.5803C119.562 24.2038 119.61 23.797 119.554 23.3975C119.498 22.9981 119.34 22.619 119.094 22.2954C118.848 21.9719 118.522 21.7143 118.147 21.5467C117.772 21.3791 117.36 21.3069 116.949 21.3367C115.532 21.4291 114.011 22.1592 112.509 22.2608C110.828 22.3163 109.005 22.2608 107.644 21.1611C107.267 20.7083 106.303 20.08 106.926 19.4885ZM109.137 13.2786C109.562 13.2251 109.994 13.26 110.404 13.381C110.814 13.502 111.194 13.7065 111.518 13.9809C112.113 14.5354 112.462 15.8291 111.423 16.0694C110.384 16.3097 106.549 16.8549 107.389 14.6555C107.54 14.3018 107.779 13.9905 108.085 13.7501C108.39 13.5096 108.752 13.3476 109.137 13.2786Z" fill="#313338"/>
</g>
<defs>
<clipPath id="clip0_1500_12249">
<rect width="120" height="28" fill="white"/>
</clipPath>
</defs>
</svg>
